<svg width="149" height="44" viewBox="0 0 149 44" fill="none" xmlns="http://www.w3.org/2000/svg">
<path d="M148.097 39.623C148.097 42.0419 146.206 44 143.871 44H4.32207C1.98699 44 0.0966797 42.0419 0.0966797 39.623V4.37696C0.0966797 1.95812 1.98699 0 4.32207 0H143.871C146.206 0 148.097 1.95812 148.097 4.37696V39.623Z" fill="black"/>
<path d="M30.0216 22.6605C30.0216 19.1405 32.872 17.3805 33.0912 17.2705C31.4468 14.8505 28.8157 14.5205 27.9386 14.5205C25.746 14.3005 23.6631 15.8405 22.5668 15.8405C21.4705 15.8405 19.7164 14.5205 17.9623 14.6305C15.6601 14.6305 13.4675 16.0605 12.2616 18.1505C9.7401 22.4405 11.6038 28.8205 14.0157 32.3405C15.2216 34.1005 16.6468 35.9705 18.4008 35.8605C20.1549 35.7505 20.8127 34.7605 23.0053 34.7605C25.0882 34.7605 25.746 35.8605 27.6097 35.8605C29.4734 35.8605 30.6794 34.1005 31.8853 32.4505C33.3105 30.4705 33.8586 28.6005 33.8586 28.4905C33.749 28.2705 30.1312 26.8405 30.0216 22.6605Z" fill="white"/>
<path d="M26.5133 12.2102C27.5 11.0002 28.1578 9.3502 27.9385 7.7002C26.5133 7.8102 24.8689 8.6902 23.7726 9.7902C22.8956 10.7802 22.1282 12.5402 22.3474 14.0802C23.9919 14.3002 25.5267 13.4202 26.5133 12.2102Z" fill="white"/>
<path d="M56.2268 34.6505H53.7053L52.3897 30.3605H47.6756L46.3601 34.6505H43.9482L48.6623 20.0205H51.5127L56.2268 34.6505ZM52.0608 28.6005L50.8549 24.7505C50.7453 24.3105 50.526 23.4305 50.0875 22.0005C49.9779 22.6605 49.7586 23.5405 49.4297 24.7505L48.1142 28.6005H52.0608Z" fill="white"/>
<path d="M68.3952 29.2601C68.3952 31.0201 67.9567 32.4501 66.9701 33.5501C66.093 34.4301 64.9967 34.9801 63.7908 34.9801C62.3656 34.9801 61.3789 34.4301 60.8308 33.4401V39.0501H58.5286V27.6101C58.5286 26.5101 58.5286 25.3001 58.4189 24.0901H60.5019L60.6115 25.7401C61.3789 24.5301 62.5849 23.8701 64.1197 23.8701C65.3256 23.8701 66.4219 24.3101 67.1893 25.3001C67.9567 26.2901 68.3952 27.6101 68.3952 29.2601ZM65.9834 29.3701C65.9834 28.3801 65.7641 27.5001 65.3256 26.8401C64.7775 26.1801 64.1197 25.8501 63.2426 25.8501C62.6945 25.8501 62.1464 26.0701 61.7078 26.4001C61.2693 26.8401 60.9404 27.2801 60.8308 27.9401C60.7212 28.2701 60.7212 28.4901 60.7212 28.6001V30.3601C60.7212 31.1301 60.9404 31.7901 61.3789 32.3401C61.8175 32.8901 62.4752 33.1101 63.2426 33.1101C64.1197 33.1101 64.7775 32.7801 65.3256 32.1201C65.7641 31.3501 65.9834 30.4701 65.9834 29.3701Z" fill="white"/>
<path d="M80.4548 29.2601C80.4548 31.0201 80.0163 32.4501 79.0296 33.5501C78.1526 34.4301 77.0563 34.9801 75.8504 34.9801C74.4252 34.9801 73.4385 34.4301 72.8904 33.4401V39.0501H70.5881V27.6101C70.5881 26.5101 70.5881 25.3001 70.4785 24.0901H72.5615L72.6711 25.7401C73.4385 24.5301 74.6444 23.8701 76.1793 23.8701C77.3852 23.8701 78.4815 24.3101 79.2489 25.3001C80.0163 26.2901 80.4548 27.6101 80.4548 29.2601ZM78.043 29.3701C78.043 28.3801 77.8237 27.5001 77.3852 26.8401C76.837 26.1801 76.1793 25.8501 75.3022 25.8501C74.7541 25.8501 74.2059 26.0701 73.7674 26.4001C73.3289 26.8401 73 27.2801 72.8904 27.9401C72.7807 28.2701 72.7807 28.4901 72.7807 28.6001V30.3601C72.7807 31.1301 73 31.7901 73.4385 32.3401C73.877 32.8901 74.5348 33.1101 75.3022 33.1101C76.1793 33.1101 76.837 32.7801 77.3852 32.1201C77.8237 31.3501 78.043 30.4701 78.043 29.3701Z" fill="white"/>
<path d="M93.9398 30.5805C93.9398 31.7905 93.5013 32.8905 92.6243 33.6605C91.6376 34.5405 90.322 34.9805 88.6776 34.9805C87.1428 34.9805 85.8272 34.6505 84.9502 34.1005L85.4983 32.1205C86.485 32.7805 87.6909 33.1105 88.8969 33.1105C89.7739 33.1105 90.4317 32.8905 90.9798 32.5605C91.4183 32.1205 91.7472 31.6805 91.7472 30.9105C91.7472 30.3605 91.528 29.8105 91.0895 29.3705C90.6509 28.9305 89.9932 28.6005 89.1161 28.2705C86.5946 27.2805 85.2791 25.9605 85.2791 24.0905C85.2791 22.8805 85.7176 21.8905 86.5946 21.1205C87.4717 20.3505 88.6776 20.0205 90.2124 20.0205C91.528 20.0205 92.6243 20.2405 93.5013 20.6805L92.8435 22.4405C91.9665 22.0005 91.0895 21.7805 90.1028 21.7805C89.2257 21.7805 88.6776 22.0005 88.1294 22.4405C87.6909 22.7705 87.5813 23.2105 87.5813 23.7605C87.5813 24.3105 87.8006 24.8605 88.2391 25.1905C88.6776 25.5205 89.3354 25.9605 90.322 26.2905C91.528 26.8405 92.5146 27.3905 93.0628 28.0505C93.7206 28.7105 93.9398 29.5905 93.9398 30.5805Z" fill="white"/>
<path d="M101.723 25.8502H99.2016V31.0202C99.2016 32.3402 99.6401 33.0002 100.517 33.0002C100.956 33.0002 101.285 33.0002 101.504 32.8902L101.613 34.6502C101.175 34.8702 100.517 34.8702 99.7497 34.8702C98.8727 34.8702 98.1053 34.5402 97.5571 33.9902C97.009 33.4402 96.7897 32.4502 96.7897 31.1302V25.8502H95.2549V24.0902H96.7897V22.1102L99.0919 21.4502V24.0902H101.613C101.723 24.0902 101.723 25.8502 101.723 25.8502Z" fill="white"/>
<path d="M113.344 29.2601C113.344 30.9101 112.905 32.2301 111.918 33.2201C110.932 34.3201 109.616 34.8701 108.081 34.8701C106.546 34.8701 105.341 34.3201 104.354 33.3301C103.367 32.3401 102.929 31.0201 102.929 29.4801C102.929 27.8301 103.367 26.5101 104.354 25.4101C105.341 24.4201 106.546 23.8701 108.191 23.8701C109.726 23.8701 110.932 24.4201 111.918 25.4101C112.905 26.4001 113.344 27.7201 113.344 29.2601ZM110.932 29.3701C110.932 28.3801 110.712 27.6101 110.274 26.8401C109.835 25.9601 109.068 25.6301 108.191 25.6301C107.204 25.6301 106.546 26.0701 105.998 26.8401C105.56 27.5001 105.341 28.3801 105.341 29.3701C105.341 30.3601 105.56 31.1301 105.998 31.9001C106.546 32.7801 107.204 33.1101 108.081 33.1101C108.958 33.1101 109.726 32.6701 110.164 31.7901C110.712 31.1301 110.932 30.3601 110.932 29.3701Z" fill="white"/>
<path d="M120.908 26.1801C120.689 26.1801 120.47 26.0701 120.141 26.0701C119.264 26.0701 118.716 26.4001 118.277 27.0601C117.839 27.6101 117.729 28.2701 117.729 29.1501V34.6501H115.427V27.3901C115.427 26.1801 115.427 25.0801 115.317 24.0901H117.4L117.51 26.0701H117.62C117.839 25.4101 118.277 24.8601 118.826 24.4201C119.374 24.0901 119.922 23.8701 120.47 23.8701C120.689 23.8701 120.908 23.8701 121.018 23.8701C120.908 23.9801 120.908 26.1801 120.908 26.1801Z" fill="white"/>
<path d="M131.433 28.9308C131.433 29.3708 131.433 29.7008 131.323 30.0308H124.307C124.307 31.0208 124.636 31.9008 125.294 32.4508C125.842 32.8908 126.609 33.2208 127.596 33.2208C128.583 33.2208 129.569 33.0008 130.446 32.6708L130.775 34.3208C129.789 34.7608 128.583 34.9808 127.267 34.9808C125.623 34.9808 124.307 34.5408 123.43 33.5508C122.553 32.5608 122.005 31.3508 122.005 29.7008C122.005 28.1608 122.443 26.7308 123.32 25.7408C124.197 24.6408 125.403 24.0908 127.048 24.0908C128.583 24.0908 129.679 24.6408 130.446 25.7408C131.104 26.4008 131.433 27.6108 131.433 28.9308ZM129.131 28.2708C129.131 27.6108 129.021 26.9508 128.692 26.5108C128.254 25.8508 127.706 25.5208 126.829 25.5208C126.061 25.5208 125.403 25.8508 124.965 26.5108C124.526 27.0608 124.307 27.6108 124.307 28.3808L129.131 28.2708Z" fill="white"/>
</svg>
