<svg width="80" height="46" viewBox="0 0 80 46" fill="none" xmlns="http://www.w3.org/2000/svg">
<g clip-path="url(#clip0)">
<path d="M55.2451 18.239C53.1383 18.239 51.7923 19.0444 50.534 21.0727C49.6269 18.8654 47.959 18.2688 46.3789 18.2688C45.1792 18.2688 43.5406 18.6566 42.6335 20.327L42.4287 19.1338C42.3702 18.8356 42.1361 18.6268 41.8142 18.6268H39.327C38.9759 18.6268 38.7125 18.8952 38.7125 19.2532V33.1235C38.7125 33.4814 38.9759 33.7499 39.327 33.7499H42.2531C42.6043 33.7499 42.8676 33.4814 42.8676 33.1235V25.6663C42.8676 23.9661 43.7162 22.3255 45.3548 22.3255C47.052 22.3255 47.842 23.638 47.842 25.6365V33.1235C47.842 33.4814 48.1054 33.7499 48.4565 33.7499H51.3241C51.6752 33.7499 51.9386 33.4814 51.9386 33.1235V25.6365C51.9386 23.9363 52.6994 22.415 54.338 22.415C56.0059 22.415 56.7374 23.6678 56.7374 25.5768V33.1235C56.7374 33.4814 57.0007 33.7499 57.3519 33.7499H60.3073C60.6584 33.7499 60.9217 33.4814 60.9217 33.1235V25.4575C60.8925 19.8497 58.2005 18.239 55.2451 18.239Z" fill="#FF6300"/>
<path d="M28.8808 18.1495C27.1251 18.1495 25.4572 18.7163 24.1697 20.327V11.975C24.1697 11.617 23.9064 11.3486 23.5552 11.3486H20.4243C20.0732 11.3486 19.8098 11.617 19.8098 11.975V33.0937C19.8098 33.4516 20.0732 33.7201 20.4243 33.7201H23.1748C23.4967 33.7201 23.7308 33.4815 23.7893 33.1832L23.9942 31.7812C25.3987 33.6008 27.0958 34.0482 28.9686 34.0482C33.3577 34.0482 36.3716 30.8565 36.3716 26.1138C36.3424 21.1622 33.2992 18.1495 28.8808 18.1495ZM28.4419 30.0213C26.3058 30.0213 24.5794 28.2614 24.5794 26.0839C24.5794 23.9065 26.3058 22.1466 28.4419 22.1466C30.5779 22.1466 32.3043 23.9065 32.3043 26.0839C32.2751 28.2614 30.5487 30.0213 28.4419 30.0213Z" fill="#FF6300"/>
<path d="M52.4067 11.0801C51.763 11.0801 51.3241 11.3784 51.09 11.7065V10.5134V10.3046V9.97646C51.09 9.9168 51.0315 9.85715 50.9729 9.85715H50.6511H50.5925H50.2707C50.2122 9.85715 50.1536 9.9168 50.1536 9.97646V10.5134V14.4508V14.928V15.2561C50.1536 15.3158 50.2122 15.3755 50.2707 15.3755H50.9144C50.9729 15.3755 51.0315 15.3158 51.0315 15.2561V14.928V14.6894C51.2948 15.107 51.7923 15.3755 52.4067 15.3755C53.6064 15.3755 54.3087 14.3911 54.3087 13.2278C54.3087 12.0645 53.6064 11.0801 52.4067 11.0801ZM52.2019 14.5403C51.4996 14.5403 51.0607 13.9735 51.0607 13.2278C51.0607 12.4821 51.4996 11.9153 52.2019 11.9153C52.9042 11.9153 53.3431 12.4821 53.3431 13.2278C53.3723 13.9735 52.9334 14.5403 52.2019 14.5403Z" fill="#FF6300"/>
<path d="M62.3555 11.0801C61.6825 11.0801 61.2729 11.4082 61.0973 11.7065V11.3187C61.0973 11.2591 61.0388 11.1994 60.9803 11.1994H60.6877H60.6584H60.6291H60.3365C60.278 11.1994 60.2195 11.2591 60.2195 11.3187V11.6469V11.8258V14.749V14.9578V15.286C60.2195 15.3456 60.278 15.4053 60.3365 15.4053H60.6584H60.7169H61.0388C61.0973 15.4053 61.1558 15.3456 61.1558 15.286V14.9877C61.1558 14.9877 61.1558 14.9877 61.1558 14.9578V12.9295C61.1558 12.2733 61.5362 11.9153 62.1215 11.9153C62.5604 11.9153 62.9115 12.3031 62.9115 12.7505V14.9578C62.9115 14.9578 62.9115 14.9578 62.9115 14.9877V15.286C62.9115 15.3456 62.97 15.4053 63.0285 15.4053H63.3504H63.4089H63.7308C63.7893 15.4053 63.8479 15.3456 63.8479 15.286V14.9578V14.749V12.7207C63.8771 11.7662 63.3504 11.0801 62.3555 11.0801Z" fill="#FF6300"/>
<path d="M66.7447 11.9153C67.2129 11.9153 67.564 12.1838 67.7103 12.5715C67.7103 12.5715 67.7103 12.5715 67.7103 12.6014C67.7103 12.661 67.7689 12.6909 67.8274 12.6909H67.8566H68.0615H68.5297C68.5882 12.6909 68.6467 12.6312 68.6467 12.5715C68.6467 12.5715 68.6467 12.3329 68.4711 12.0346C68.4711 12.0346 68.4711 12.0346 68.4711 12.0048C68.4711 12.0048 68.4711 12.0048 68.4419 11.975C68.4419 11.9451 68.4126 11.9451 68.4126 11.9153C68.1785 11.5574 67.8566 11.3784 67.8566 11.3784C67.564 11.1994 67.2129 11.0801 66.774 11.0801C65.5743 11.0801 64.7257 12.0346 64.7257 13.2278C64.7257 14.4209 65.5743 15.3754 66.774 15.3754C67.2129 15.3754 67.5933 15.2561 67.8566 15.0772C67.8566 15.0772 68.1785 14.8982 68.4126 14.5402C68.4126 14.5402 68.4126 14.5104 68.4419 14.5104L68.4711 14.4806V14.4508C68.6467 14.1525 68.6467 13.9138 68.6467 13.9138C68.6467 13.8542 68.5882 13.7945 68.5297 13.7945H67.8274C67.7689 13.7945 67.7396 13.8243 67.7103 13.884C67.7103 13.884 67.7103 13.884 67.7103 13.9138C67.564 14.3016 67.2129 14.5701 66.7447 14.5701C66.0717 14.5701 65.6621 14.0331 65.6621 13.2576C65.6328 12.4821 66.0717 11.9153 66.7447 11.9153Z" fill="#FF6300"/>
<path d="M71.3973 11.0801C70.1098 11.0801 69.2905 12.0645 69.2905 13.2278C69.2905 14.3911 70.1098 15.3754 71.3973 15.3754C72.714 15.3754 73.5333 14.3911 73.5333 13.2278C73.5333 12.0645 72.6848 11.0801 71.3973 11.0801ZM71.3973 14.5402C70.7243 14.5402 70.2268 14.0331 70.2268 13.2278C70.2268 12.4224 70.7243 11.9153 71.3973 11.9153C72.0703 11.9153 72.597 12.4224 72.597 13.2278C72.5677 14.0331 72.0703 14.5402 71.3973 14.5402Z" fill="#FF6300"/>
<path d="M58.9613 11.1994H58.3175C58.259 11.1994 58.2005 11.2591 58.2005 11.3187V11.796C57.9371 11.3784 57.4689 11.1099 56.8252 11.1099C55.6255 11.1099 54.9232 12.0943 54.9232 13.2576C54.9232 14.4209 55.5962 15.4053 56.8252 15.4053C57.4689 15.4053 57.9371 15.1666 58.2005 14.7192V14.7789V15.2859C58.2005 15.3456 58.259 15.4053 58.3175 15.4053H58.9613C59.0198 15.4053 59.0783 15.3456 59.0783 15.2859V14.9578V14.7789V11.796V11.617V11.3187C59.0783 11.2292 59.049 11.1994 58.9613 11.1994ZM57.03 14.5402C56.3277 14.5402 55.8888 13.9735 55.8888 13.2278C55.8888 12.482 56.3277 11.9153 57.03 11.9153C57.7323 11.9153 58.1712 12.482 58.1712 13.2278C58.2005 13.9735 57.7615 14.5402 57.03 14.5402Z" fill="#FF6300"/>
<path d="M7.37384 19.7006C7.37384 18.9549 8.04685 18.3583 8.77838 18.4777C12.6994 19.0742 15.7133 22.5344 15.7133 26.6806C15.7133 33.1832 10.5926 34.615 8.36872 34.9133C7.84202 34.9729 7.37384 34.5553 7.37384 34.0184C7.37384 33.9886 7.37384 23.4591 7.37384 19.7006Z" fill="#462A71"/>
<path d="M0.907096 27.1876H4.56474C6.11558 27.1876 7.37381 25.905 7.37381 24.3241V11.4977C7.37381 10.9907 6.96416 10.5731 6.46672 10.5731H4.76957C2.13606 10.5731 0 12.7506 0 15.4351V26.263C0 26.77 0.409656 27.1876 0.907096 27.1876Z" fill="#FF6300"/>
<path d="M76.4302 31.7216C78.654 30.5583 79.6489 28.4703 79.7367 26.2331C79.7367 24.3539 79.2685 22.8326 78.4492 21.6097L79.8537 19.9691C80.0878 19.7006 80.0293 19.283 79.7659 19.0444L77.5128 17.2845C77.2202 17.0757 76.8398 17.1354 76.635 17.4038L75.4353 19.0146C74.2648 18.4776 72.9481 18.1794 71.6021 18.1794C67.3299 18.1794 63.3212 20.8341 63.3212 26.1734C63.3212 31.0355 66.5984 34.0781 71.6313 34.0781C74.4111 34.0781 75.3475 35.2414 75.3475 36.7626C75.3475 38.7015 73.5333 39.656 71.5436 39.656C69.6416 39.656 68.0907 38.9998 67.7396 37.0013C67.6811 36.703 67.4177 36.4643 67.1251 36.4643H64.1697C63.8186 36.4643 63.526 36.7626 63.526 37.1504C63.7308 41.2369 66.4814 43.6531 71.5436 43.6531C75.7572 43.6531 79.883 41.4159 79.883 36.7328C79.8537 35.8379 79.8537 33.2727 76.4302 31.7216ZM71.5143 29.9915C69.3782 29.9915 67.6811 28.2316 67.6811 26.084C67.6811 23.9065 69.4075 22.1764 71.5143 22.1764C73.6211 22.1764 75.3475 23.9363 75.3475 26.084C75.3768 28.2316 73.6504 29.9915 71.5143 29.9915Z" fill="#FF6300"/>
</g>
<defs>
<clipPath id="clip0">
<rect width="80" height="33.7959" fill="white" transform="translate(0 9.85715)"/>
</clipPath>
</defs>
</svg>
