<svg width="43" height="45" viewBox="0 0 43 45" fill="none" xmlns="http://www.w3.org/2000/svg">
<path d="M39.1607 2.28814H35.3214C35.3214 1.02489 34.2896 0 33.0179 0H8.44643C7.17466 0 6.14286 1.02489 6.14286 2.28814H3.83929C1.72 2.291 0.00287946 3.99661 0 6.1017V32.0339C0.00287946 34.139 1.72 35.8446 3.83929 35.8475H15.2554L14.6795 40.4237H13.0536C11.7818 40.4237 10.75 41.4486 10.75 42.7119C10.75 43.9751 11.7818 45 13.0536 45H29.9464C31.2182 45 32.25 43.9751 32.25 42.7119C32.25 41.4486 31.2182 40.4237 29.9464 40.4237H28.3205L27.7446 35.8475H39.1607C41.28 35.8446 42.9971 34.139 43 32.0339V6.1017C42.9971 3.99661 41.28 2.291 39.1607 2.28814ZM7.67857 2.28814C7.67857 1.86674 8.02219 1.52542 8.44643 1.52542H33.0179C33.4421 1.52542 33.7857 1.86674 33.7857 2.28814V5.33898H7.67857V2.28814ZM7.67857 6.86441H33.7857V28.2203H7.67857V6.86441ZM1.53571 6.1017C1.53571 4.83845 2.56752 3.81356 3.83929 3.81356H6.14286V28.2203H1.53571V6.1017ZM29.9464 41.9492C30.3707 41.9492 30.7143 42.2905 30.7143 42.7119C30.7143 43.1333 30.3707 43.4746 29.9464 43.4746H13.0536C12.6293 43.4746 12.2857 43.1333 12.2857 42.7119C12.2857 42.2905 12.6293 41.9492 13.0536 41.9492H29.9464ZM16.2267 40.4237L16.8026 35.8475H26.1974L26.7733 40.4237H16.2267ZM41.4643 32.0339C41.4643 33.2971 40.4325 34.322 39.1607 34.322H3.83929C2.56752 34.322 1.53571 33.2971 1.53571 32.0339V29.7458H41.4643V32.0339ZM41.4643 28.2203H35.3214V3.81356H39.1607C40.4325 3.81356 41.4643 4.83845 41.4643 6.1017V28.2203Z" fill="#462A71"/>
<path d="M36.8571 31.2712H38.3928V32.7967H36.8571V31.2712Z" fill="#462A71"/>
<path d="M10.75 2.28809H9.21429V3.81351H10.75V2.28809Z" fill="#462A71"/>
<path d="M13.8214 2.28809H12.2857V3.81351H13.8214V2.28809Z" fill="#462A71"/>
<path d="M16.8928 2.28809H15.3571V3.81351H16.8928V2.28809Z" fill="#462A71"/>
<path d="M21.5 8.38989C16.411 8.38989 12.2857 12.4876 12.2857 17.5424C12.2857 22.5973 16.411 26.695 21.5 26.695C26.589 26.695 30.7143 22.5973 30.7143 17.5424C30.7085 12.4895 26.587 8.39561 21.5 8.38989ZM21.5 25.1696C17.2595 25.1696 13.8214 21.7545 13.8214 17.5424C13.8214 13.3304 17.2595 9.91532 21.5 9.91532C25.7405 9.91532 29.1786 13.3304 29.1786 17.5424C29.1738 21.7526 25.7386 25.1648 21.5 25.1696Z" fill="#462A71"/>
<path d="M21.5 9.91528C17.2595 9.91528 13.8214 13.3303 13.8214 17.5424C13.8214 21.7545 17.2595 25.1695 21.5 25.1695C25.7386 25.1648 29.1738 21.7526 29.1786 17.5424C29.1786 13.3303 25.7405 9.91528 21.5 9.91528ZM25.9363 15.8702L20.5075 21.2625C20.2071 21.5609 19.7214 21.5609 19.421 21.2625L17.2499 19.106C16.9504 18.8085 16.9504 18.3251 17.2499 18.0277C17.5532 17.7388 18.0321 17.7388 18.3355 18.0277L19.421 19.106C19.7214 19.4034 20.2071 19.4034 20.5075 19.106L24.8517 14.7909C25.155 14.503 25.633 14.503 25.9363 14.7909C26.2367 15.0893 26.2367 15.5717 25.9363 15.8702Z" fill="#FF6300"/>
<path d="M25.9363 15.8701L20.5076 21.2625C20.2071 21.5609 19.7215 21.5609 19.421 21.2625L17.2499 19.1059C16.9505 18.8085 16.9505 18.3251 17.2499 18.0277C17.5532 17.7388 18.0322 17.7388 18.3355 18.0277L19.421 19.1059C19.7215 19.4034 20.2071 19.4034 20.5076 19.1059L24.8517 14.7909C25.155 14.503 25.633 14.503 25.9363 14.7909C26.2367 15.0893 26.2367 15.5717 25.9363 15.8701Z" fill="white"/>
</svg>
