<svg width="39" height="54" viewBox="0 0 39 54" fill="none" xmlns="http://www.w3.org/2000/svg">
<path d="M23.6474 2.36248L3.4552 7.77297C2.26025 8.09315 1.55126 9.32117 1.87144 10.5161L12.306 49.4583C12.6261 50.6532 13.8542 51.3622 15.0491 51.042L35.2413 45.6315C36.4363 45.3113 37.1453 44.0833 36.8251 42.8884L26.3906 3.94623C26.0704 2.75129 24.8424 2.04229 23.6474 2.36248ZM19.3341 5.06407L19.2187 5.86792L9.04329 8.59442L8.5414 7.95598L19.3341 5.06407ZM35.3828 43.2748C35.4895 43.6729 35.2529 44.0826 34.8549 44.1892L14.6626 49.5997C14.2646 49.7064 13.8549 49.4699 13.7483 49.0718L3.31375 10.1297C3.20708 9.73157 3.44359 9.32193 3.84166 9.21527L6.97218 8.37645L8.17468 9.90463C8.35901 10.1397 8.66605 10.2414 8.95451 10.1641L20.0804 7.18288C20.3689 7.10559 20.584 6.86401 20.6261 6.56829L20.9034 4.6436L24.0339 3.80478C24.432 3.69811 24.8416 3.93462 24.9483 4.3327L35.3828 43.2748Z" fill="#462A71"/>
<path d="M21.7664 27.2029C22.2231 28.192 21.8994 29.3662 21 29.9821L21.4221 31.5571L19.9798 31.9435L19.5577 30.3685C18.6144 30.2951 17.8195 29.6363 17.5713 28.7242L19.0136 28.3378C19.1203 28.7359 19.5299 28.9724 19.928 28.8657C20.3261 28.759 20.5626 28.3494 20.4559 27.9513C20.3492 27.5532 19.9396 27.3167 19.5415 27.4234C18.4899 27.7075 17.3863 27.1916 16.9301 26.2016C16.4734 25.2125 16.7972 24.0383 17.6965 23.4224L17.2745 21.8474L18.7168 21.461L19.1388 23.036C20.0822 23.1094 20.877 23.7682 21.1253 24.6803L19.683 25.0667C19.5763 24.6686 19.1667 24.4321 18.7686 24.5388C18.3705 24.6455 18.134 25.0551 18.2407 25.4532C18.3473 25.8513 18.757 26.0878 19.1551 25.9811C20.2066 25.697 21.3102 26.2129 21.7664 27.2029Z" fill="white"/>
<path d="M17.2227 18.7695C12.8417 19.9434 10.2417 24.4467 11.4156 28.8277C12.5895 33.2087 17.0928 35.8087 21.4738 34.6348C25.8548 33.4609 28.4548 28.9576 27.2809 24.5766C26.1026 20.1991 21.6029 17.6012 17.2227 18.7695ZM21.0873 33.1925C17.5025 34.153 13.8184 32.0261 12.8579 28.4412C11.8973 24.8564 14.0243 21.1723 17.6092 20.2118C21.194 19.2512 24.8781 21.3782 25.8386 24.963C26.7943 28.5469 24.6689 32.2282 21.0873 33.1925Z" fill="#462A71"/>
<path d="M17.6092 20.2118C14.0244 21.1724 11.8974 24.8564 12.8579 28.4413C13.8185 32.0261 17.5025 34.1531 21.0874 33.1926C24.6689 32.2283 26.7943 28.547 25.8386 24.9631C24.8781 21.3783 21.194 19.2513 17.6092 20.2118ZM19.155 25.981C20.2066 25.697 21.3102 26.2128 21.7664 27.2028C22.2231 28.1919 21.8993 29.3662 21 29.982L21.2294 30.838C21.3359 31.2354 21.1004 31.6432 20.7031 31.7497L20.6987 31.7508C20.3014 31.8573 19.8936 31.6219 19.7871 31.2245L19.5577 30.3685C19.0115 30.3262 18.5155 30.0874 18.1465 29.7171C17.7449 29.3146 17.9384 28.6258 18.4879 28.4786C18.7439 28.41 19.0184 28.4825 19.2055 28.6704C19.3927 28.8584 19.6746 28.9413 19.9487 28.8593C20.3222 28.7476 20.5521 28.3506 20.4613 27.9715C20.3637 27.5609 19.9466 27.314 19.5413 27.4226C18.4897 27.7067 17.3861 27.1909 16.9299 26.2008C16.4732 25.2118 16.797 24.0375 17.6963 23.4216L17.467 22.5656C17.3605 22.1683 17.5959 21.7605 17.9933 21.654L17.9976 21.6528C18.395 21.5464 18.8028 21.7818 18.9093 22.1792L19.1386 23.0352C19.6848 23.0774 20.1809 23.3163 20.5499 23.6866C20.9514 24.0891 20.758 24.7778 20.2085 24.9251C19.9525 24.9937 19.678 24.9211 19.4908 24.7332C19.3037 24.5453 19.0217 24.4624 18.7477 24.5444C18.3741 24.656 18.1443 25.0531 18.2351 25.4322C18.3334 25.8426 18.7505 26.0895 19.155 25.981Z" fill="#FF6300"/>
<path d="M20.418 36.4636L23.3026 35.6907L23.689 37.133L20.8044 37.9059L20.418 36.4636Z" fill="#462A71"/>
<path d="M24.0237 35.4976L25.466 35.1111L25.8525 36.5534L24.4102 36.9399L24.0237 35.4976Z" fill="#462A71"/>
<path d="M18.2545 37.0433L19.6968 36.6569L20.0833 38.0992L18.641 38.4856L18.2545 37.0433Z" fill="#462A71"/>
<path d="M15.0075 16.2714L17.8921 15.4984L18.2786 16.9407L15.394 17.7137L15.0075 16.2714Z" fill="#462A71"/>
<path d="M18.6132 15.3052L20.0555 14.9187L20.442 16.361L18.9997 16.7475L18.6132 15.3052Z" fill="#462A71"/>
<path d="M12.8441 16.8511L14.2864 16.4646L14.6728 17.9069L13.2305 18.2934L12.8441 16.8511Z" fill="#462A71"/>
<path d="M30.6694 42.9919L17.6887 46.4701C17.2906 46.5768 17.0541 46.9864 17.1608 47.3845C17.2674 47.7826 17.6771 48.0191 18.0751 47.9124L31.0559 44.4342C31.4539 44.3276 31.6904 43.9179 31.5838 43.5198C31.4771 43.1218 31.0675 42.8853 30.6694 42.9919Z" fill="#462A71"/>
</svg>
