<svg width="48" height="39" viewBox="0 0 48 39" fill="none" xmlns="http://www.w3.org/2000/svg">
<g clip-path="url(#clip0)">
<path d="M47.725 11.0163L37.12 0.278085C36.7619 -0.0844761 36.1834 -0.0939673 35.8141 0.258154C34.9909 1.04402 31.12 4.73512 31.0638 4.79017C31.06 4.79302 31.0563 4.79681 31.0534 4.79966C30.1366 5.72789 29.2338 6.1417 28.1266 6.1417C25.8625 6.1417 24.1281 6.789 22.6872 8.16996C21.5069 7.03767 20.1681 6.45206 18.2997 6.2575L13.6131 1.51193C13.2466 1.14083 12.6531 1.14083 12.2875 1.51193L0.27438 13.6739C-0.0828074 14.0345 -0.0940574 14.6173 0.253755 14.9931C0.261255 15.0007 0.26688 15.0083 0.27438 15.0159C0.27438 15.0159 8.09125 22.9173 8.1025 22.9287L7.77157 23.2637C6.49001 24.5611 6.48907 26.6625 7.77157 27.9618C8.37907 28.5749 9.21344 28.9403 10.1256 28.9309C10.1163 29.843 10.4641 30.6867 11.0866 31.3169C11.7184 31.9576 12.5641 32.2974 13.4406 32.2879C13.4313 33.199 13.7781 34.0428 14.4006 34.673C15.0081 35.2871 15.8416 35.6515 16.7547 35.642C16.7453 36.5541 17.0931 37.3979 17.7156 38.0281C18.9944 39.3236 21.0756 39.3236 22.3553 38.0281L22.6872 37.6921L23.0191 38.0281C24.2978 39.3236 26.3791 39.3236 27.6588 38.0281C28.2803 37.3998 28.6291 36.557 28.6197 35.6439C29.515 35.6534 30.3494 35.3041 30.9738 34.672C31.6216 34.0162 31.9413 33.1516 31.9328 32.2888C32.8413 32.2983 33.6719 31.9405 34.2878 31.3169C34.9113 30.6858 35.2591 29.8401 35.2488 28.9309C36.1197 28.9394 36.9672 28.6044 37.6028 27.9609C38.8853 26.6634 38.8853 24.5621 37.6028 23.2637L37.2719 22.9287C43.8091 16.319 35.5403 24.6969 47.725 12.3584C48.0916 11.9873 48.0916 11.3875 47.725 11.0163ZM2.26282 14.3449L12.9503 3.525L16.5522 7.17149L5.8675 17.9904L2.26282 14.3449ZM9.09719 26.6188C8.54782 26.0626 8.54782 25.1619 9.09719 24.6057L12.4122 21.2497C12.9606 20.6945 13.8522 20.6954 14.4006 21.2497C14.9509 21.8078 14.9509 22.7066 14.4006 23.2637L11.0866 26.6188C10.5381 27.1731 9.64563 27.1731 9.09719 26.6188ZM12.4122 29.9749C11.8628 29.4177 11.8619 28.518 12.4122 27.9609L15.7263 24.6057C16.2766 24.0486 17.1653 24.0486 17.7156 24.6057C18.2641 25.161 18.2659 26.0617 17.7156 26.6188C17.7147 26.6188 17.7147 26.6188 17.7147 26.6188L14.4006 29.9749C13.8522 30.5301 12.9606 30.5301 12.4122 29.9749ZM15.7263 33.33C15.1769 32.7738 15.1769 31.8731 15.7263 31.3169L19.0413 27.9609C19.5897 27.4056 20.4813 27.4056 21.0297 27.9618C21.5716 28.5085 21.5875 29.4092 21.0297 29.9749L17.7156 33.329C17.1672 33.8843 16.2747 33.8843 15.7263 33.33ZM21.0297 36.6861C20.4813 37.2413 19.5897 37.2413 19.0413 36.6861C18.4919 36.1289 18.4909 35.2292 19.0413 34.672L22.3553 31.3169C22.9047 30.7607 23.7944 30.7598 24.3447 31.3169C24.8978 31.8769 24.8894 32.7786 24.3447 33.33L21.0297 36.6861ZM26.3331 36.6861C25.7847 37.2413 24.8931 37.2413 24.3447 36.6861L24.0128 36.3501L25.6703 34.672C25.7828 34.5591 25.8831 34.4376 25.9769 34.3123L26.3322 34.672C26.3331 34.672 26.3331 34.672 26.3331 34.672V34.673C26.8834 35.2292 26.8834 36.1289 26.3331 36.6861ZM36.2772 26.6188C35.7288 27.1731 34.8363 27.1731 34.2878 26.6188L29.9791 22.2567C29.6134 21.8856 29.0191 21.8856 28.6534 22.2567C28.2869 22.6268 28.2869 23.2276 28.6534 23.5987L32.9622 27.9618C33.5116 28.517 33.5125 29.4177 32.9622 29.9749C32.4119 30.532 31.5222 30.5301 30.9738 29.9749L26.665 25.6118C26.2994 25.2417 25.7059 25.2417 25.3394 25.6118C24.9728 25.982 24.9728 26.5837 25.3394 26.9539L29.6481 31.3169C30.1956 31.8722 30.1956 32.7748 29.6481 33.33C29.3828 33.5986 29.0294 33.7467 28.6534 33.7467C27.7619 33.7467 27.475 33.0367 26.6303 32.2888C26.6219 31.4147 26.2816 30.5937 25.6703 29.9749C25.0488 29.3447 24.2163 28.9935 23.3163 29.002C23.3256 28.0899 22.9769 27.2462 22.3553 26.6188C21.7075 25.962 20.8525 25.6393 20.0013 25.6479C20.02 23.7762 18.5228 22.2719 16.6872 22.2909C16.6966 21.3693 16.3403 20.5293 15.7263 19.9076C14.4475 18.6121 12.3653 18.6121 11.0866 19.9076L9.42813 21.5866L7.19407 19.3315L18.2284 8.15857C19.5944 8.31707 20.5141 8.71475 21.3578 9.50821L18.7094 12.1895C17.2478 13.6701 17.2478 16.078 18.7094 17.5586C20.1719 19.0382 22.5513 19.0382 24.0128 17.5586L26.665 14.8735C28.3788 16.6095 35.0275 23.3415 36.2772 24.6057C36.8247 25.161 36.8247 26.0636 36.2772 26.6188ZM35.9631 21.5695C35.9631 21.5695 35.9575 21.5752 35.9538 21.579L35.9463 21.5866L27.9906 13.5315L28.6534 12.8605C29.02 12.4903 29.02 11.8895 28.6534 11.5184C28.2869 11.1483 27.6944 11.1483 27.3278 11.5184L22.6872 16.2165C21.9559 16.9568 20.7663 16.9568 20.035 16.2165C19.3047 15.4762 19.3047 14.2718 20.035 13.5315C20.9959 12.5587 22.8916 10.6405 23.8525 9.66766C24.9644 8.54201 26.2825 8.03993 28.1266 8.03993C29.4522 8.03993 30.5969 7.63656 31.6694 6.78236L41.005 16.4785C36.8247 20.6992 36.0737 21.4585 35.9631 21.5695ZM42.3306 15.1364L33.0531 5.5001L36.4375 2.27122L45.7366 11.6874L42.3306 15.1364Z" fill="#462A71"/>
<path d="M36.4378 2.27124L33.0534 5.50012L42.3309 15.1365L45.7369 11.6874L36.4378 2.27124ZM38.2856 7.3955C37.9191 7.76565 37.3256 7.76565 36.96 7.3955C36.5934 7.0244 36.5934 6.42361 36.96 6.05345C37.3256 5.68235 37.9191 5.68235 38.2856 6.05345C38.6512 6.42361 38.6512 7.0244 38.2856 7.3955ZM41.3784 12.0737L39.5081 10.1802C39.1425 9.81004 39.1425 9.20831 39.5081 8.83815C39.8738 8.46705 40.4681 8.46705 40.8337 8.83815L42.7041 10.7316C43.0706 11.1027 43.0706 11.7035 42.7041 12.0737C42.3384 12.4448 41.7441 12.4448 41.3784 12.0737Z" fill="#FF6300"/>
<path d="M42.7041 12.0737C42.3384 12.4448 41.7441 12.4448 41.3784 12.0737L39.5081 10.1802C39.1425 9.81003 39.1425 9.2083 39.5081 8.83814C39.8738 8.46704 40.4681 8.46704 40.8338 8.83814L42.7041 10.7316C43.0706 11.1027 43.0706 11.7035 42.7041 12.0737Z" fill="white"/>
<path d="M37.6228 7.67362C38.1406 7.67362 38.5603 7.24868 38.5603 6.7245C38.5603 6.20032 38.1406 5.77539 37.6228 5.77539C37.105 5.77539 36.6853 6.20032 36.6853 6.7245C36.6853 7.24868 37.105 7.67362 37.6228 7.67362Z" fill="white"/>
<path d="M12.9506 3.52502L2.26312 14.3449L5.86781 17.9905L16.5525 7.17152L12.9506 3.52502ZM9.52218 11.9845L6.71625 14.8261C6.34968 15.1972 5.75625 15.1972 5.39062 14.8261C5.02406 14.456 5.02406 13.8552 5.39062 13.4841L8.19656 10.6424C8.56218 10.2723 9.15562 10.2713 9.52218 10.6424C9.88781 11.0135 9.88875 11.6134 9.52218 11.9845ZM12.2334 9.36112C11.8669 9.73222 11.2734 9.73222 10.9078 9.36112C10.5412 8.99097 10.5412 8.39018 10.9078 8.01907C11.2734 7.64892 11.8669 7.64892 12.2334 8.01907C12.5991 8.39018 12.5991 8.99097 12.2334 9.36112Z" fill="#FF6300"/>
<path d="M9.52218 11.9844L6.71624 14.826C6.34968 15.1971 5.75624 15.1971 5.39061 14.826C5.02405 14.4559 5.02405 13.8551 5.39061 13.484L8.19655 10.6424C8.56218 10.2722 9.15561 10.2712 9.52218 10.6424C9.8878 11.0135 9.88874 11.6133 9.52218 11.9844Z" fill="white"/>
<path d="M11.5706 9.63919C12.0884 9.63919 12.5081 9.21426 12.5081 8.69008C12.5081 8.1659 12.0884 7.74097 11.5706 7.74097C11.0529 7.74097 10.6331 8.1659 10.6331 8.69008C10.6331 9.21426 11.0529 9.63919 11.5706 9.63919Z" fill="white"/>
</g>
<defs>
<clipPath id="clip0">
<rect width="48" height="39" fill="white"/>
</clipPath>
</defs>
</svg>
