<svg width="104" height="59" viewBox="0 0 104 59" fill="none" xmlns="http://www.w3.org/2000/svg">
<g clip-path="url(#clip0)">
<path d="M71.8459 20.9753C69.1266 20.9753 67.3615 21.9823 65.6917 24.6196C64.4991 21.7905 62.3046 21.0233 60.3009 21.0233C58.7266 21.0233 56.5798 21.5507 55.4349 23.6605L55.1963 22.1261C55.1486 21.7425 54.8147 21.4548 54.433 21.4548H51.189C50.7596 21.4548 50.378 21.7905 50.378 22.27V40.0595C50.378 40.491 50.7119 40.8746 51.189 40.8746H54.9578C55.3872 40.8746 55.7688 40.539 55.7688 40.0595V30.4695C55.7688 28.2638 56.9138 26.2019 59.0129 26.2019C61.2073 26.2019 62.2569 27.8802 62.2569 30.4215V40.0115C62.2569 40.4431 62.5908 40.8267 63.0679 40.8267H66.789C67.2184 40.8267 67.6 40.491 67.6 40.0115V30.4215C67.6 28.2158 68.5541 26.2978 70.7009 26.2978C72.8477 26.2978 73.8018 27.9281 73.8018 30.3256V40.0115C73.8018 40.4431 74.1358 40.8267 74.6128 40.8267H78.4294C78.8587 40.8267 79.2404 40.491 79.2404 40.0115V30.2297C79.1927 23.0372 75.6624 20.9753 71.8459 20.9753Z" fill="white"/>
<path d="M37.5927 20.8795C35.3028 20.8795 33.156 21.5988 31.4862 23.6606V12.9677C31.4862 12.5362 31.1046 12.1526 30.6752 12.1526H26.5725C26.0954 12.1526 25.7615 12.4882 25.7615 12.9677V40.0596C25.7615 40.4911 26.1431 40.8747 26.5725 40.8747H30.1505C30.5321 40.8747 30.9138 40.587 30.9615 40.2034L31.2 38.3813C33.0129 40.7309 35.2073 41.2583 37.6881 41.2583C43.4128 41.2583 47.3248 37.1826 47.3248 31.0929C47.2771 24.7155 43.2697 20.8795 37.5927 20.8795ZM36.9725 36.0797C34.2055 36.0797 31.9633 33.826 31.9633 31.0449C31.9633 28.2638 34.2055 26.0102 36.9725 26.0102C39.7395 26.0102 41.9817 28.2638 41.9817 31.0449C41.9817 33.826 39.7395 36.0797 36.9725 36.0797Z" fill="white"/>
<path d="M68.1248 11.817C67.3137 11.817 66.7413 12.2006 66.4073 12.6321V11.0977V10.81V10.3785C66.4073 10.2826 66.3596 10.2346 66.2642 10.2346H65.8348H65.7394H65.3578C65.2624 10.2346 65.2147 10.2826 65.2147 10.3785V11.0498V16.0845V16.7079V17.1394C65.2147 17.2353 65.2624 17.2833 65.3578 17.2833H66.2165C66.3119 17.2833 66.3596 17.2353 66.3596 17.1394V16.7079V16.4681C66.6936 16.9956 67.3137 17.3312 68.1725 17.3312C69.7468 17.3312 70.6532 16.0845 70.6532 14.5981C70.6055 13.0637 69.6991 11.817 68.1248 11.817ZM67.8862 16.2284C66.9321 16.2284 66.4073 15.5091 66.4073 14.5501C66.4073 13.5911 66.9798 12.8719 67.8862 12.8719C68.7926 12.8719 69.3651 13.5911 69.3651 14.5501C69.3651 15.5091 68.7926 16.2284 67.8862 16.2284Z" fill="white"/>
<path d="M81.0532 11.8169C80.1945 11.8169 79.622 12.2005 79.4312 12.632V12.1046C79.4312 12.0087 79.3835 11.9607 79.2881 11.9607H78.9064H78.8587H78.811H78.4294C78.334 11.9607 78.2863 12.0087 78.2863 12.1046V12.5361V12.7759V16.4681V16.7558V17.1394C78.2863 17.2353 78.334 17.2832 78.4294 17.2832H78.8587H78.9541H79.3835C79.4789 17.2832 79.5266 17.2353 79.5266 17.1394V16.7558V14.1665C79.5266 13.3513 80.0037 12.8718 80.8147 12.8718C81.3872 12.8718 81.8642 13.3513 81.8642 13.9267V16.7558V17.1394C81.8642 17.2353 81.9119 17.2832 82.0074 17.2832H82.4367H82.5321H82.9615C83.0569 17.2832 83.1046 17.2353 83.1046 17.1394V16.7558V16.4681V13.8788C83.0569 12.68 82.3413 11.8169 81.0532 11.8169Z" fill="white"/>
<path d="M86.7779 12.8718C87.3981 12.8718 87.8275 13.2074 88.0183 13.6869C88.0183 13.6869 88.0183 13.6869 88.0183 13.7349C88.0183 13.7828 88.1137 13.8308 88.1614 13.8308H88.2091H88.4477H89.0679C89.1633 13.8308 89.211 13.7828 89.211 13.6869C89.211 13.6869 89.211 13.3992 88.9724 12.9677C88.9724 12.9677 88.9724 12.9677 88.9724 12.9197C88.9724 12.9197 88.9724 12.8718 88.9247 12.8718C88.6385 12.4402 88.2091 12.2005 88.2091 12.2005C87.8275 11.9607 87.3504 11.8169 86.7779 11.8169C85.2036 11.8169 84.1064 13.0636 84.1064 14.5501C84.1064 16.0845 85.2036 17.2832 86.7779 17.2832C87.3504 17.2832 87.8275 17.1394 88.2091 16.8996C88.2091 16.8996 88.6385 16.6599 88.9247 16.2283C88.9247 16.2283 88.9247 16.1804 88.9724 16.1804C88.9724 16.1804 88.9724 16.1324 89.0201 16.1324C89.0201 16.1324 89.0201 16.1324 89.0201 16.0845C89.2587 15.7009 89.2587 15.4132 89.2587 15.4132C89.2587 15.3173 89.211 15.2693 89.1156 15.2693H88.2091C88.1614 15.2693 88.066 15.3173 88.066 15.3652C87.8752 15.8447 87.4458 16.1804 86.8257 16.1804C85.9669 16.1804 85.3945 15.4611 85.3945 14.5021C85.3468 13.591 85.8715 12.8718 86.7779 12.8718Z" fill="white"/>
<path d="M92.8367 11.8169C91.167 11.8169 90.0697 13.1115 90.0697 14.5501C90.0697 15.9886 91.1192 17.2832 92.8367 17.2832C94.5541 17.2832 95.6036 16.0365 95.6036 14.5501C95.6036 13.0636 94.5064 11.8169 92.8367 11.8169ZM92.8367 16.2283C91.978 16.2283 91.3101 15.557 91.3101 14.5501C91.3101 13.5431 91.978 12.8718 92.8367 12.8718C93.7431 12.8718 94.3633 13.5431 94.3633 14.5501C94.3633 15.605 93.6954 16.2283 92.8367 16.2283Z" fill="white"/>
<path d="M76.6642 11.9609H75.8532C75.7578 11.9609 75.7101 12.0088 75.7101 12.1047V12.7281C75.3761 12.2006 74.756 11.865 73.8972 11.865C72.3229 11.865 71.4165 13.1117 71.4165 14.5981C71.4165 16.0846 72.3229 17.3313 73.8972 17.3313C74.7083 17.3313 75.3284 16.9957 75.7101 16.4682V16.5641V17.1875C75.7101 17.2834 75.7578 17.3313 75.8532 17.3313H76.7119C76.8073 17.3313 76.855 17.2834 76.855 17.1875V16.7559V16.5162V12.7281V12.4883V12.1047C76.8073 12.0088 76.7596 11.9609 76.6642 11.9609ZM74.1358 16.2285C73.2293 16.2285 72.6569 15.5092 72.6569 14.5502C72.6569 13.5912 73.2293 12.8719 74.1358 12.8719C75.0899 12.8719 75.6147 13.5912 75.6147 14.5502C75.6624 15.5092 75.0899 16.2285 74.1358 16.2285Z" fill="white"/>
<path d="M9.58899 22.8456C9.58899 21.8866 10.4477 21.1194 11.4018 21.2633C16.5064 22.0305 20.4183 26.4419 20.4183 31.8123C20.4183 40.1556 13.7394 41.9777 10.8771 42.3613C10.1615 42.4572 9.58899 41.8818 9.58899 41.2105C9.58899 41.1626 9.58899 27.6886 9.58899 22.8456Z" fill="#FA6300"/>
<path d="M1.19266 32.4836H5.9156C7.91927 32.4836 9.54128 30.8533 9.54128 28.8394V12.3445C9.54128 11.6732 9.01651 11.1458 8.34862 11.1458H6.20183C2.76697 11.1458 0 13.9269 0 17.3793V31.2369C0 31.9082 0.524771 32.4836 1.19266 32.4836Z" fill="white"/>
<path d="M99.3725 38.2376C102.283 36.7511 103.571 34.0659 103.666 31.1889C103.666 28.7914 103.046 26.8254 101.996 25.2431L103.809 23.1333C104.095 22.7976 104.048 22.2222 103.666 21.9345L100.756 19.6809C100.374 19.3932 99.8495 19.4891 99.611 19.8247L98.0367 21.8866C96.5101 21.1673 94.7927 20.8317 93.0752 20.8317C87.4936 20.8317 82.2936 24.2361 82.2936 31.045C82.2936 37.2786 86.5395 41.1625 93.0752 41.1625C96.6532 41.1625 97.9413 42.649 97.9413 44.6149C97.9413 47.1083 95.6037 48.3071 93.0275 48.3071C90.5468 48.3071 88.5431 47.4919 88.1138 44.9026C88.0661 44.519 87.6844 44.2313 87.3028 44.2313H83.4385C82.9615 44.2313 82.5798 44.6149 82.6275 45.0944C82.9138 50.321 86.4917 53.4377 93.0275 53.4377C98.5138 53.4377 103.857 50.5607 103.857 44.567C103.809 43.56 103.809 40.2515 99.3725 38.2376ZM92.9798 36.0318C90.2128 36.0318 87.9706 33.7782 87.9706 30.9971C87.9706 28.216 90.2128 25.9623 92.9798 25.9623C95.7468 25.9623 97.989 28.216 97.989 30.9971C97.989 33.7782 95.7468 36.0318 92.9798 36.0318Z" fill="white"/>
</g>
<defs>
<clipPath id="clip0">
<rect width="104" height="43.3469" fill="white" transform="translate(0 10.2346)"/>
</clipPath>
</defs>
</svg>
