<svg width="149" height="44" viewBox="0 0 149 44" fill="none" xmlns="http://www.w3.org/2000/svg">
<g clip-path="url(#clip0)">
<path d="M142.615 43.9375H5.57816C2.56335 43.9375 0.0966797 41.4625 0.0966797 38.4375V5.4375C0.0966797 2.4125 2.56335 -0.0625 5.57816 -0.0625H142.615C145.63 -0.0625 148.097 2.4125 148.097 5.4375V38.4375C148.097 41.4625 145.63 43.9375 142.615 43.9375Z" fill="black"/>
<path d="M73.6027 24.0484C71.0062 24.0484 68.9563 25.9555 68.9563 28.68C68.9563 31.4045 71.0062 33.3117 73.6027 33.3117C76.1991 33.3117 78.249 31.4045 78.249 28.68C78.249 25.9555 76.1991 24.0484 73.6027 24.0484ZM73.6027 31.5407C72.2361 31.5407 71.0062 30.3147 71.0062 28.68C71.0062 27.0453 72.2361 25.8193 73.6027 25.8193C74.9692 25.8193 76.1991 26.9091 76.1991 28.68C76.1991 30.3147 74.9692 31.5407 73.6027 31.5407ZM63.4901 24.0484C60.8936 24.0484 58.8438 25.9555 58.8438 28.68C58.8438 31.4045 60.8936 33.3117 63.4901 33.3117C66.0866 33.3117 68.1364 31.4045 68.1364 28.68C68.1364 25.9555 65.9499 24.0484 63.4901 24.0484ZM63.4901 31.5407C62.1235 31.5407 60.8936 30.3147 60.8936 28.68C60.8936 27.0453 62.1235 25.8193 63.4901 25.8193C64.8567 25.8193 66.0866 26.9091 66.0866 28.68C66.0866 30.3147 64.8567 31.5407 63.4901 31.5407ZM51.3277 25.4106V27.3178H56.1107C55.974 28.4076 55.564 29.2249 55.0174 29.7698C54.3341 30.4509 53.2409 31.2683 51.3277 31.2683C48.4579 31.2683 46.1347 28.9525 46.1347 26.0917C46.1347 23.231 48.4579 20.9152 51.3277 20.9152C52.8309 20.9152 54.0608 21.4601 54.8807 22.2774L56.2473 20.9152C55.0174 19.8254 53.5142 18.8718 51.3277 18.8718C47.3647 18.8718 43.9482 22.1412 43.9482 26.0917C43.9482 30.0423 47.228 33.3117 51.3277 33.3117C53.5142 33.3117 55.1541 32.6306 56.384 31.2683C57.7505 29.906 58.0238 28.1351 58.0238 26.6366C58.0238 26.228 58.0238 25.8193 57.8872 25.4106C58.0238 25.4106 51.3277 25.4106 51.3277 25.4106ZM100.797 27.0453C100.387 25.9555 99.294 24.0484 96.8342 24.0484C94.3744 24.0484 92.4612 25.9555 92.4612 28.68C92.4612 31.2683 94.3744 33.3117 97.1075 33.3117C99.294 33.3117 100.524 31.9494 100.934 31.2683L99.294 30.1785C98.7474 30.9958 98.0641 31.4045 96.9709 31.4045C95.8776 31.4045 95.1944 30.9958 94.7844 30.0423L101.071 27.454C101.071 27.5902 100.797 27.0453 100.797 27.0453ZM94.5111 28.5438C94.5111 26.7729 95.8776 25.8193 96.9709 25.8193C97.7908 25.8193 98.4741 26.228 98.7474 26.7729C98.6108 26.7729 94.5111 28.5438 94.5111 28.5438ZM89.4548 33.0392H91.5046V19.4167H89.4548V33.0392ZM86.175 25.1382C85.6284 24.5933 84.8085 24.0484 83.7152 24.0484C81.3921 24.0484 79.2056 26.0917 79.2056 28.68C79.2056 31.2683 81.3921 33.3117 83.7152 33.3117C84.8085 33.3117 85.7651 32.7668 86.175 32.2219H86.3117V32.903C86.3117 34.6739 85.3551 35.6275 83.8519 35.6275C82.622 35.6275 81.802 34.6739 81.5287 33.9928L79.7522 34.6739C80.2988 35.9 81.6654 37.3984 83.8519 37.3984C86.3117 37.3984 88.2249 36.0362 88.2249 32.6306V24.3208H86.3117L86.175 25.1382ZM83.7152 31.5407C82.3487 31.5407 81.1188 30.3147 81.1188 28.68C81.1188 27.0453 82.3487 25.8193 83.7152 25.8193C85.0818 25.8193 86.175 27.0453 86.175 28.68C86.3117 30.3147 85.2184 31.5407 83.7152 31.5407ZM110.363 19.4167H105.444V33.0392H107.493V27.8627H110.363C112.686 27.8627 114.873 26.228 114.873 23.6397C114.873 21.0514 112.686 19.4167 110.363 19.4167ZM110.5 25.9555H107.63V21.3238H110.5C112.003 21.3238 112.96 22.5499 112.96 23.6397C112.823 24.7295 112.003 25.9555 110.5 25.9555ZM123.072 24.0484C121.569 24.0484 120.066 24.7295 119.383 26.0917L121.159 26.9091C121.569 26.0917 122.252 25.9555 123.072 25.9555C124.165 25.9555 125.259 26.6366 125.259 27.7264V27.8627C124.849 27.5902 124.165 27.3178 123.072 27.3178C121.159 27.3178 119.109 28.4076 119.109 30.3147C119.109 32.0856 120.749 33.3117 122.526 33.3117C123.892 33.3117 124.712 32.6306 125.122 31.9494H125.259V33.0392H127.172V27.8627C127.172 25.4106 125.395 24.0484 123.072 24.0484ZM122.799 31.5407C122.116 31.5407 121.159 31.2683 121.159 30.4509C121.159 29.3611 122.252 28.9525 123.346 28.9525C124.302 28.9525 124.712 29.0887 125.259 29.3611C125.122 30.5872 124.029 31.5407 122.799 31.5407ZM134.415 24.3208L132.092 30.1785H131.955L129.495 24.3208H127.309L130.998 32.6306L128.948 37.126H131.135L136.738 24.3208H134.415ZM115.966 33.0392H118.016V19.4167H115.966V33.0392Z" fill="white"/>
<path d="M11.3572 8.51958C11.0839 8.79203 10.8105 9.33693 10.8105 10.0181V34.1299C10.8105 34.8111 10.9472 35.356 11.3572 35.6284L11.4938 35.7646L25.0228 22.2783V22.0059L11.3572 8.51958Z" fill="url(#paint0_linear)"/>
<path d="M29.5321 26.7734L25.0225 22.278V22.0055L29.5321 17.5101H29.6688L34.9984 20.5071C36.5016 21.3244 36.5016 22.8229 34.9984 23.6403L29.5321 26.7734C29.6688 26.7734 29.5321 26.7734 29.5321 26.7734Z" fill="url(#paint1_linear)"/>
<path d="M29.6694 26.7733L25.023 22.1416L11.3574 35.7642C11.904 36.3091 12.724 36.3091 13.6806 35.7642L29.6694 26.7733Z" fill="url(#paint2_linear)"/>
<path d="M29.6694 17.5104L13.6806 8.51956C12.724 7.97466 11.904 8.11088 11.3574 8.65578L25.023 22.2783L29.6694 17.5104Z" fill="url(#paint3_linear)"/>
<path d="M46.1416 7.04031C46.5801 6.93031 47.3475 6.82031 48.0053 6.82031C48.992 6.82031 49.6498 7.04031 50.1979 7.37031C50.6364 7.70031 50.8557 8.14031 50.8557 8.80031C50.8557 9.57031 50.3075 10.2303 49.5401 10.5603C50.3075 10.7803 51.1846 11.3303 51.1846 12.5403C51.1846 13.2003 50.9653 13.7503 50.5268 14.0803C49.9786 14.6303 49.1016 14.8503 47.786 14.8503C47.1283 14.8503 46.5801 14.8503 46.2512 14.7403L46.1416 7.04031ZM47.1283 10.3403H48.0053C49.1016 10.3403 49.7594 9.79031 49.7594 9.02031C49.7594 8.14031 49.1016 7.70031 48.0053 7.70031C47.5668 7.70031 47.2379 7.70031 47.1283 7.81031V10.3403ZM47.1283 14.1903C47.3475 14.1903 47.6764 14.1903 48.0053 14.1903C49.1016 14.1903 50.0883 13.7503 50.0883 12.6503C50.0883 11.5503 49.2112 11.1103 48.0053 11.1103H47.1283V14.1903Z" fill="white"/>
<path d="M55.5699 14.9599L55.4603 14.1899C55.1314 14.6299 54.5833 15.0699 53.7062 15.0699C52.5003 15.0699 51.9521 14.2999 51.9521 13.4199C51.9521 11.9899 53.1581 11.3299 55.3507 11.3299V11.2199C55.3507 10.7799 55.241 9.89988 54.0351 9.89988C53.487 9.89988 52.9388 10.1199 52.5003 10.3399L52.281 9.67988C52.7196 9.34988 53.487 9.12988 54.1447 9.12988C55.8988 9.12988 56.3373 10.3399 56.3373 11.4399V13.5299C56.3373 14.0799 56.3373 14.5199 56.447 14.8499H55.5699V14.9599ZM55.4603 11.9899C54.364 11.9899 53.0484 12.2099 53.0484 13.3099C53.0484 13.9699 53.487 14.2999 54.0351 14.2999C54.8025 14.2999 55.241 13.8599 55.4603 13.3099C55.4603 13.1999 55.5699 13.0899 55.5699 12.9799L55.4603 11.9899Z" fill="white"/>
<path d="M59.297 7.59066C59.297 7.92066 59.0777 8.25066 58.6392 8.25066C58.3103 8.25066 57.9814 7.92066 57.9814 7.59066C57.9814 7.26066 58.2007 6.93066 58.6392 6.93066C58.9681 6.93066 59.297 7.26066 59.297 7.59066ZM58.0911 14.9607V9.24066H59.1874V14.9607H58.0911Z" fill="white"/>
<path d="M61.3805 9.23988L62.1479 10.4499C62.3672 10.7799 62.5864 11.1099 62.6961 11.3299C62.9153 10.9999 63.025 10.6699 63.2442 10.3399L64.0116 9.12988H65.1079L63.1346 11.8799L65.1079 14.8499H63.902L63.025 13.5299C62.8057 13.1999 62.5864 12.8699 62.3672 12.5399C62.1479 12.8699 61.9287 13.1999 61.819 13.5299L60.942 14.8499H59.8457L61.819 11.9899L59.8457 9.23988H61.3805Z" fill="white"/>
<path d="M69.4928 14.9599L69.3832 14.1899C69.0543 14.6299 68.5061 15.0699 67.6291 15.0699C66.4231 15.0699 65.875 14.2999 65.875 13.4199C65.875 11.9899 67.0809 11.3299 69.2735 11.3299V11.2199C69.2735 10.6699 69.1639 9.89988 67.958 9.89988C67.4098 9.89988 66.8617 10.1199 66.4231 10.3399L66.2039 9.67988C66.6424 9.34988 67.4098 9.12988 68.0676 9.12988C69.8217 9.12988 70.2602 10.3399 70.2602 11.4399V13.5299C70.2602 14.0799 70.2602 14.5199 70.3698 14.8499H69.4928V14.9599ZM69.2735 11.9899C68.1772 11.9899 66.8617 12.2099 66.8617 13.3099C66.8617 13.9699 67.3002 14.2999 67.8483 14.2999C68.6157 14.2999 69.0543 13.8599 69.2735 13.3099C69.2735 13.1999 69.3832 13.0899 69.3832 12.9799V11.9899H69.2735Z" fill="white"/>
<path d="M72.0146 10.9999C72.0146 10.3399 72.0146 9.78988 72.0146 9.23988H72.8917V10.3399C73.1109 9.56988 73.7687 9.12988 74.4265 9.12988C74.5361 9.12988 74.6458 9.12988 74.7554 9.12988V10.1199C74.6458 10.1199 74.5361 10.1199 74.4265 10.1199C73.6591 10.1199 73.2206 10.6699 73.0013 11.4399C73.0013 11.5499 73.0013 11.7699 73.0013 11.8799V14.9599H72.0146V10.9999Z" fill="white"/>
<path d="M78.373 10.7799C78.373 10.2299 78.373 9.67988 78.373 9.23988H79.2501L79.3597 10.2299C79.6886 9.67988 80.3464 9.12988 81.2234 9.12988C81.9908 9.12988 83.1968 9.56988 83.1968 11.5499V14.9599H82.2101V11.6599C82.2101 10.7799 81.8812 10.0099 80.8945 10.0099C80.2368 10.0099 79.6886 10.4499 79.4693 11.1099C79.4693 11.2199 79.3597 11.4399 79.3597 11.5499V14.9599H78.373V10.7799Z" fill="white"/>
<path d="M88.0201 14.9599L87.9105 14.1899C87.5816 14.6299 87.0335 15.0699 86.1564 15.0699C84.9505 15.0699 84.4023 14.2999 84.4023 13.4199C84.4023 11.9899 85.6083 11.3299 87.8009 11.3299V11.2199C87.8009 10.6699 87.6912 9.89988 86.4853 9.89988C85.9372 9.89988 85.389 10.1199 84.9505 10.3399L84.7312 9.67988C85.1698 9.34988 85.9372 9.12988 86.5949 9.12988C88.349 9.12988 88.7875 10.3399 88.7875 11.4399V13.5299C88.7875 14.0799 88.7875 14.5199 88.8972 14.8499H88.0201V14.9599ZM87.8009 11.9899C86.7046 11.9899 85.389 12.2099 85.389 13.3099C85.389 13.9699 85.8275 14.2999 86.3757 14.2999C87.1431 14.2999 87.5816 13.8599 87.8009 13.3099C87.8009 13.1999 87.9105 13.0899 87.9105 12.9799V11.9899H87.8009Z" fill="white"/>
</g>
<defs>
<linearGradient id="paint0_linear" x1="23.8718" y1="34.4168" x2="-4.16756" y2="5.62163" gradientUnits="userSpaceOnUse">
<stop stop-color="#00A0FF"/>
<stop offset="0.0066" stop-color="#00A1FF"/>
<stop offset="0.2601" stop-color="#00BEFF"/>
<stop offset="0.5122" stop-color="#00D2FF"/>
<stop offset="0.7604" stop-color="#00DFFF"/>
<stop offset="1" stop-color="#00E3FF"/>
</linearGradient>
<linearGradient id="paint1_linear" x1="37.0041" y1="22.1426" x2="-4.52748" y2="22.1426" gradientUnits="userSpaceOnUse">
<stop stop-color="#FFE000"/>
<stop offset="0.4087" stop-color="#FFBD00"/>
<stop offset="0.7754" stop-color="#FFA500"/>
<stop offset="1" stop-color="#FF9C00"/>
</linearGradient>
<linearGradient id="paint2_linear" x1="17.9978" y1="28.7643" x2="-20.0258" y2="-10.2843" gradientUnits="userSpaceOnUse">
<stop stop-color="#FF3A44"/>
<stop offset="1" stop-color="#C31162"/>
</linearGradient>
<linearGradient id="paint3_linear" x1="-1.2036" y1="34.5744" x2="15.7757" y2="17.1376" gradientUnits="userSpaceOnUse">
<stop stop-color="#32A071"/>
<stop offset="0.0685" stop-color="#2DA771"/>
<stop offset="0.4762" stop-color="#15CF74"/>
<stop offset="0.8009" stop-color="#06E775"/>
<stop offset="1" stop-color="#00F076"/>
</linearGradient>
<clipPath id="clip0">
<rect width="148" height="44" fill="white" transform="translate(0.0966797)"/>
</clipPath>
</defs>
</svg>
