<svg width="528" height="453" viewBox="0 0 528 453" fill="none" xmlns="http://www.w3.org/2000/svg">
<rect width="528" height="453" fill="#F4F5F6"/>
<mask id="mask0" mask-type="alpha" maskUnits="userSpaceOnUse" x="0" y="0" width="528" height="453">
<rect width="528" height="453" fill="#602AB4"/>
</mask>
<g mask="url(#mask0)">
<path d="M480 266.026C480 307.117 464.327 348.197 432.981 379.552L355.263 457.292L353.593 458.962L351.912 460.643L322.009 490.556C310.231 502.337 297.079 511.902 283.076 519.253C279.873 520.934 276.636 522.502 273.354 523.956C241.951 537.816 207.005 541.11 173.921 533.84C173.319 533.703 172.717 533.567 172.115 533.431C171.513 533.294 170.923 533.147 170.321 532.999C142.723 526.262 116.567 512.118 95.0106 490.556C32.3298 427.857 32.3298 326.203 95.0106 263.504L205.994 152.488C207.414 151.068 208.867 149.671 210.333 148.307C210.923 147.762 211.514 147.217 212.116 146.671C212.74 146.115 213.365 145.558 213.99 145.013C214.807 144.286 215.636 143.581 216.477 142.877C216.999 142.445 217.533 142.002 218.055 141.57C218.146 141.502 218.237 141.423 218.328 141.343C218.805 140.968 219.282 140.582 219.748 140.207C219.759 140.196 219.77 140.185 219.782 140.185C220.259 139.798 220.747 139.423 221.224 139.048C224.722 136.322 228.322 133.766 231.991 131.38C252.763 117.85 275.978 109.613 299.726 106.682C300.521 106.58 301.316 106.489 302.111 106.41C302.747 106.341 303.371 106.273 303.996 106.216C304.609 106.148 305.223 106.103 305.825 106.057C351.333 102.183 398.159 117.656 432.981 152.488C464.327 183.843 480 224.934 480 266.026Z" fill="#37FEC8"/>
<path d="M220.838 141.332C220.838 141.332 218.408 137.992 215.069 138.287C211.729 138.594 211.729 148.319 212.638 151.659C213.547 154.999 216.284 168.984 220.838 169.586C225.392 170.199 225.392 170.199 225.392 170.199L220.838 141.332Z" fill="#A0604F"/>
<path d="M227.198 169.915L224.62 153.601L222.633 141.037C222.587 140.753 222.474 140.48 222.315 140.253C222.269 140.196 221.894 139.685 221.224 139.049C220.759 138.594 220.157 138.094 219.43 137.64C218.839 137.288 218.18 136.958 217.454 136.754C216.897 136.572 216.307 136.47 215.671 136.458C215.421 136.436 215.159 136.447 214.898 136.47C214.115 136.538 212.99 136.901 212.07 138.242C210.526 140.457 210.139 144.82 210.333 148.307C210.423 149.841 210.616 151.193 210.866 152.136C210.991 152.568 211.128 153.158 211.309 153.885C213.285 162.02 215.795 170.756 220.588 171.403L222.826 171.699L222.882 171.71L224.734 171.949L225.154 172.006C225.233 172.017 225.313 172.017 225.392 172.017H225.415C225.869 172.017 226.29 171.846 226.619 171.54C226.653 171.517 226.676 171.494 226.698 171.472C226.892 171.278 227.028 171.051 227.107 170.801C227.21 170.517 227.244 170.211 227.198 169.915ZM223.212 168.063L221.815 167.882L221.077 167.779C220.054 167.643 217.897 165.553 214.853 153.033C214.671 152.261 214.512 151.625 214.387 151.182C213.956 149.591 213.853 147.183 213.99 145.013C214.137 142.582 214.592 140.446 215.228 140.105C215.318 140.094 215.409 140.094 215.489 140.094C215.693 140.094 215.898 140.116 216.102 140.15C216.806 140.298 217.454 140.65 217.976 141.059C217.976 141.059 217.976 141.059 217.987 141.071C218.112 141.15 218.226 141.241 218.328 141.343C218.669 141.616 218.941 141.9 219.112 142.105L222.303 162.167V162.281L222.576 164.03L223.212 168.063Z" fill="#462A71"/>
<path d="M394.934 366.237C393.719 370.486 389.471 376.871 388.562 388.731C387.642 400.58 384.61 413.645 368.199 425.505C351.788 437.355 347.233 429.152 347.233 429.152C347.233 429.152 347.54 433.401 349.664 438.57C351.106 442.092 352.832 451.078 353.593 458.962L351.912 460.644L322.009 490.556C310.231 502.337 297.079 511.903 283.076 519.253C279.873 520.934 276.636 522.502 273.354 523.956C241.951 537.816 207.005 541.111 173.921 533.84C173.319 533.704 172.717 533.567 172.115 533.431C172.206 530.977 172.331 528.33 172.524 525.797C172.604 524.763 172.604 523.945 172.558 523.286C172.422 521.264 171.763 520.741 170.991 520.025C170.014 519.117 168.856 517.901 168.265 513.039C167.05 503.007 186.198 436.446 186.198 436.446C180.122 438.57 154.591 429.152 142.439 378.393C130.286 327.634 138.191 270.797 142.439 252.563C146.698 234.33 163.711 233.421 169.48 232.501C175.261 231.592 208.686 220.958 208.686 220.958C208.686 220.958 213.842 219.743 216.738 217.914C218.533 216.789 221.145 216.005 222.871 215.573C223.927 215.301 224.654 215.176 224.654 215.176L227.664 215.301L242.53 215.937L245.483 216.062L248.845 216.198H248.856C248.856 216.198 248.868 216.198 248.868 216.21L277.477 217.425H277.511L280.657 217.55H280.668L283.485 217.675L300.68 218.402H300.714L310.174 218.8C310.561 218.834 310.776 218.834 310.776 218.834C311.435 218.913 312.037 218.97 312.582 219.027C315.319 219.3 316.898 219.436 318.67 220.958C320.805 222.776 349.97 228.252 365.166 229.854C380.351 231.455 382.475 244.361 385.519 253.472C388.562 262.595 388.562 337.063 389.164 341.926C389.778 346.788 396.149 361.977 394.934 366.237Z" fill="#FF6300"/>
<path d="M393.332 350.128C392.231 346.652 391.186 343.357 390.97 341.698C390.8 340.335 390.664 332.042 390.505 322.431C389.982 290.621 389.289 259.039 387.245 252.904C386.916 251.893 386.586 250.848 386.257 249.769C383.497 240.782 380.044 229.592 365.348 228.036C349.493 226.366 322.281 221.095 319.862 219.572C317.682 217.709 315.683 217.505 312.9 217.221C312.366 217.164 311.787 217.118 311.049 217.027C310.981 217.016 310.901 217.005 310.822 217.005C310.81 217.005 310.583 216.993 310.186 216.971L301.1 216.596H301.089L297.102 216.425L285.404 215.926L282.849 215.823C282.849 215.823 282.849 215.823 282.837 215.823L280.123 215.698L246.176 214.267L243.28 214.142L240.611 214.028L228.993 213.54L226.903 213.449L224.734 213.358C224.597 213.347 224.461 213.358 224.325 213.392C224.302 213.392 224.211 213.415 224.075 213.438C222.962 213.653 218.567 214.608 215.761 216.369C213.172 218.016 208.311 219.163 208.129 219.22C207.8 219.322 174.773 229.819 169.196 230.706C168.776 230.774 168.288 230.842 167.754 230.91C160.917 231.853 144.892 234.068 140.667 252.154C136.51 269.99 128.39 327.543 140.667 378.813C150.173 418.507 167.595 431.742 174.648 435.593C177.93 437.388 181.11 438.4 183.7 438.536C180.134 451.112 165.335 504.018 166.459 513.254C167.095 518.514 168.424 520.139 169.855 521.457C170.537 522.082 170.945 522.456 170.707 525.671C170.537 528.091 170.4 530.625 170.321 532.999C170.923 533.147 171.513 533.294 172.115 533.431C172.717 533.567 173.319 533.703 173.921 533.84C174.012 531.306 174.148 528.546 174.341 525.933C174.409 524.956 174.432 524.126 174.387 523.422C174.296 521.536 173.853 520.491 173.194 519.673C172.933 519.355 172.649 519.071 172.331 518.776C171.525 518.026 170.605 517.185 170.082 512.811C169.117 504.893 182.655 455.361 187.947 436.945C188.14 436.298 187.947 435.582 187.448 435.116C186.948 434.651 186.232 434.492 185.596 434.719C184.552 435.094 181.292 435.071 176.397 432.39C169.764 428.777 153.376 416.235 144.21 377.973C132.104 327.373 140.11 270.593 144.222 252.984C147.867 237.329 161.633 235.432 168.254 234.523C168.822 234.443 169.321 234.375 169.764 234.307C175.613 233.387 207.868 223.128 209.095 222.73C209.322 222.674 214.592 221.424 217.703 219.459C219.509 218.323 222.36 217.561 223.905 217.209C224.302 217.118 224.609 217.05 224.79 217.016L226.255 217.073L229.163 217.198L244.859 217.868L248.323 218.016C248.323 218.016 248.323 218.027 248.334 218.016L252.604 218.186L273.593 219.072L277.897 219.266C277.908 219.266 277.908 219.266 277.908 219.266L281.202 219.402L306.654 220.47L309.345 220.583H309.357L310.561 220.64C310.935 220.686 311.299 220.731 311.64 220.754C311.946 220.799 312.253 220.822 312.537 220.856C315.035 221.106 316.182 221.22 317.489 222.344C320.339 224.787 351.844 230.285 364.973 231.671C377.273 232.966 380.067 242.055 382.77 250.848C383.111 251.95 383.452 253.029 383.792 254.052C385.825 260.175 386.473 299.187 386.859 322.488C387.063 334.382 387.177 340.665 387.359 342.153C387.608 344.141 388.653 347.424 389.857 351.23C391.424 356.16 393.787 363.613 393.185 365.737C392.878 366.794 392.333 368.078 391.708 369.577C389.903 373.837 387.427 379.688 386.745 388.583C385.837 400.285 382.838 412.679 367.131 424.028C359.068 429.856 354.309 430.459 351.753 429.947C349.63 429.527 348.846 428.289 348.823 428.266C348.414 427.516 347.529 427.164 346.711 427.403C345.893 427.641 345.359 428.425 345.416 429.277C345.427 429.47 345.768 433.889 347.983 439.263C349.471 442.898 351.254 452.702 351.912 460.644L353.593 458.962L355.263 457.292C354.434 449.681 352.81 441.421 351.356 437.877C350.652 436.173 350.152 434.571 349.811 433.196C350.129 433.31 350.459 433.401 350.822 433.48C355.604 434.548 361.816 432.367 369.266 426.982C386.223 414.724 389.46 400.842 390.38 388.867C391.016 380.563 393.355 375.03 395.059 370.997C395.74 369.395 396.331 368.009 396.694 366.737C397.535 363.772 395.911 358.239 393.332 350.128Z" fill="#462A71"/>
<path d="M224.654 171.676C224.654 171.676 235.455 210.938 224.654 215.187C224.654 215.187 232.684 228.558 268.539 229.774C304.394 230.99 310.776 218.834 310.776 218.834C310.776 218.834 291.821 218.402 292.639 203.27L224.654 171.676Z" fill="#A0604F"/>
<path d="M312.344 217.902C312.06 217.425 311.583 217.107 311.049 217.028C310.981 217.016 310.901 217.005 310.822 217.005C310.811 217.005 310.583 216.993 310.186 216.971C308.051 216.8 301.1 215.937 297.205 211.722C295.262 209.609 294.354 207.019 294.445 203.792C294.445 203.645 294.445 203.508 294.456 203.361C294.501 202.69 294.149 202.054 293.57 201.713C293.582 201.713 293.582 201.713 293.57 201.702C293.525 201.668 293.457 201.645 293.4 201.611L291.923 200.93L278.488 194.681L277.136 194.056H277.125L275.773 193.42L268.596 190.08L265.915 188.831C265.904 188.819 265.892 188.819 265.881 188.819L262.883 187.422L258.045 185.184C258.033 185.184 258.022 185.184 258.011 185.172L257.386 184.877L256.511 184.468L254.297 183.434L253.797 183.207L251.594 182.185L227.107 170.801L226.301 170.426L225.415 170.017C225.392 170.006 225.381 170.006 225.358 169.995C224.972 169.824 224.552 169.802 224.154 169.927C224.086 169.938 224.018 169.961 223.95 169.995H223.939C223.768 170.063 223.621 170.154 223.473 170.279C223.087 170.597 222.86 171.063 222.837 171.54C222.826 171.597 222.826 171.642 222.826 171.699C222.826 171.847 222.848 172.006 222.894 172.153C227.175 187.717 230.344 210.734 224.075 213.438C224.052 213.46 224.018 213.472 223.984 213.483C223.484 213.676 223.098 214.085 222.928 214.596C222.826 214.914 222.803 215.255 222.871 215.573C222.916 215.766 222.985 215.948 223.087 216.119C223.144 216.21 223.394 216.596 223.905 217.209C226.71 220.572 237.601 230.547 268.482 231.592C270.186 231.649 271.832 231.683 273.422 231.683C300.294 231.683 309.243 223.708 311.64 220.754C312.128 220.152 312.344 219.765 312.389 219.675C312.491 219.47 312.56 219.243 312.582 219.027C312.628 218.641 312.548 218.243 312.344 217.902ZM306.96 220.231C306.858 220.311 306.756 220.39 306.654 220.47C302.474 223.696 292.071 228.74 268.596 227.945C245.063 227.15 233.865 220.992 229.163 217.198C228.402 216.596 227.811 216.051 227.369 215.596C227.471 215.505 227.573 215.414 227.664 215.301C228.164 214.801 228.618 214.21 228.993 213.54C231.355 209.507 231.639 202.77 231.048 195.795C230.844 193.432 230.549 191.035 230.185 188.717V188.706C229.367 183.389 228.254 178.424 227.391 174.948L227.664 175.073L245.904 183.548L247.505 184.298L247.8 184.434L249.992 185.456L252.593 186.661L255.728 188.115C255.728 188.115 255.728 188.126 255.739 188.126L258.862 189.58L271.071 195.249L272.752 196.033L274.331 196.772L290.015 204.054L290.788 204.417C290.799 204.974 290.822 205.519 290.89 206.053C290.89 206.053 290.89 206.053 290.89 206.065C290.981 206.951 291.14 207.78 291.378 208.598C291.969 210.7 293.025 212.574 294.536 214.21C295.319 215.062 296.182 215.789 297.102 216.425C298.238 217.232 299.465 217.88 300.68 218.402H300.714C302.951 219.368 305.166 219.913 306.96 220.231Z" fill="#462A71"/>
<path d="M266.721 77.8036C266.721 77.8036 238.771 72.9413 222.053 99.9908C205.347 127.04 232.684 201.509 240.588 211.234C248.493 220.958 260.941 224.605 273.706 220.958C286.472 217.311 292.241 203.031 298.011 194.511C303.78 186.002 307.131 172.63 306.517 163.815C305.904 154.999 304.394 137.674 304.996 133.72C305.609 129.778 315.024 84.8018 266.721 77.8036Z" fill="#A0604F"/>
<path d="M226.619 171.54C226.29 171.847 225.869 172.017 225.415 172.017L226.971 172.744C226.857 172.346 226.732 171.949 226.619 171.54ZM224.211 162.679C224.2 162.679 224.2 162.667 224.211 162.679L225.358 169.995C225.381 170.006 225.392 170.006 225.415 170.018L226.301 170.426C225.574 167.893 224.87 165.303 224.211 162.679ZM226.619 171.54C226.29 171.847 225.869 172.017 225.415 172.017L226.971 172.744C226.857 172.346 226.732 171.949 226.619 171.54ZM224.211 162.679L225.358 169.995C225.381 170.006 225.392 170.006 225.415 170.018L226.301 170.426C225.574 167.893 224.87 165.303 224.211 162.679ZM226.619 171.54C226.29 171.847 225.869 172.017 225.415 172.017L226.971 172.744C226.857 172.346 226.732 171.949 226.619 171.54ZM224.211 162.679L225.358 169.995C225.381 170.006 225.392 170.006 225.415 170.018L226.301 170.426C225.574 167.893 224.87 165.303 224.211 162.679ZM226.619 171.54C226.29 171.847 225.869 172.017 225.415 172.017L226.971 172.744C226.857 172.346 226.732 171.949 226.619 171.54ZM226.301 170.426C225.574 167.893 224.87 165.303 224.211 162.679L225.358 169.995C225.381 170.006 225.392 170.006 225.415 170.018L226.301 170.426ZM308.335 163.69C308.221 161.963 308.062 159.907 307.903 157.691C307.767 155.828 307.608 153.761 307.46 151.636C307.381 150.682 307.312 149.705 307.256 148.739C307.097 146.512 306.96 144.297 306.858 142.264C306.779 140.616 306.711 139.105 306.699 137.799C306.676 137.129 306.676 136.504 306.688 135.959C306.688 135.197 306.733 134.573 306.79 134.129C306.79 134.084 306.79 134.039 306.801 134.004L306.892 133.482C308.596 123.485 308.198 114.123 305.825 106.057C304.462 101.4 302.429 97.1849 299.771 93.5268C292.866 84.0521 281.838 78.1559 266.983 75.9974C265.722 75.8043 237.363 71.7372 220.497 99.0367C215 107.932 214.092 121.61 215.67 136.458C215.727 137.06 215.795 137.674 215.875 138.287C215.943 138.901 216.023 139.526 216.102 140.151C216.227 141.059 216.352 141.968 216.477 142.877C217.715 151.216 219.611 159.759 221.815 167.882C221.985 168.518 222.167 169.154 222.337 169.79C222.508 170.381 222.667 170.96 222.837 171.54C222.848 171.597 222.871 171.653 222.882 171.71C224.563 177.538 226.369 183.094 228.163 188.138C229.14 190.853 230.106 193.42 231.048 195.795C234.342 204.099 237.352 210.143 239.169 212.381C239.634 212.949 240.111 213.494 240.611 214.028C241.224 214.699 241.86 215.335 242.53 215.937C243.28 216.63 244.052 217.277 244.859 217.868C250.333 222.015 256.932 224.185 263.984 224.185C267.312 224.185 270.742 223.696 274.206 222.708C276.795 221.969 279.112 220.822 281.202 219.402C281.997 218.868 282.758 218.289 283.485 217.675C284.144 217.118 284.791 216.539 285.404 215.926C287.664 213.699 289.618 211.177 291.378 208.598C291.867 207.894 292.332 207.178 292.786 206.474C293.366 205.565 293.911 204.667 294.445 203.792C294.967 202.929 295.478 202.088 295.967 201.27C297.204 199.203 298.363 197.237 299.521 195.533C305.223 187.138 309.016 173.448 308.335 163.69ZM292.832 199.407C292.537 199.907 292.23 200.418 291.923 200.93C291.617 201.452 291.299 201.975 290.981 202.497C290.663 203.009 290.345 203.531 290.015 204.054C287.267 208.416 284.144 212.688 280.123 215.698C279.283 216.335 278.442 216.914 277.511 217.425H277.477C276.262 218.095 274.978 218.652 273.593 219.072C273.468 219.118 273.331 219.163 273.206 219.197C265.904 221.288 258.76 220.879 252.604 218.186C251.298 217.63 250.072 216.971 248.868 216.21C248.868 216.198 248.856 216.198 248.856 216.198H248.845C247.925 215.619 247.028 214.983 246.176 214.267C244.677 213.051 243.269 211.643 241.997 210.075C239.135 206.553 232.956 192.421 227.664 175.073C227.437 174.3 227.198 173.528 226.971 172.744C226.857 172.346 226.732 171.949 226.619 171.54C226.505 171.176 226.403 170.801 226.301 170.426C225.574 167.893 224.87 165.303 224.211 162.679C224.2 162.679 224.2 162.667 224.2 162.667V162.644C223.825 161.179 223.473 159.725 223.121 158.237C223.121 158.237 223.121 158.237 223.121 158.225C221.724 152.238 220.554 146.149 219.748 140.207C219.748 140.196 219.748 140.173 219.736 140.151V140.139C219.634 139.299 219.521 138.469 219.43 137.64C217.681 122.951 218.351 109.443 223.598 100.945C235.409 81.8368 252.797 79.2579 261.338 79.2579C264.246 79.2579 266.131 79.5533 266.403 79.5987C266.426 79.5987 266.438 79.6101 266.449 79.6101C280.305 81.6095 290.526 87.0172 296.818 95.6739C299.101 98.8094 300.884 102.422 302.111 106.41C303.678 111.363 304.405 116.907 304.28 122.837C304.212 126.075 303.883 129.438 303.292 132.868L303.201 133.448C303.099 134.107 303.053 135.05 303.042 136.243V136.277C303.031 138.003 303.099 140.253 303.247 142.866C303.462 147.103 303.848 152.329 304.269 157.964C304.428 160.179 304.587 162.224 304.7 163.94C305.314 172.835 301.713 185.809 296.5 193.488C295.285 195.283 294.093 197.283 292.832 199.407ZM224.211 162.679L225.358 169.995C225.381 170.006 225.392 170.006 225.415 170.018L226.301 170.426C225.574 167.893 224.87 165.303 224.211 162.679ZM226.619 171.54C226.29 171.847 225.869 172.017 225.415 172.017L226.971 172.744C226.857 172.346 226.732 171.949 226.619 171.54ZM224.211 162.679L225.358 169.995C225.381 170.006 225.392 170.006 225.415 170.018L226.301 170.426C225.574 167.893 224.87 165.303 224.211 162.679ZM226.619 171.54C226.29 171.847 225.869 172.017 225.415 172.017L226.971 172.744C226.857 172.346 226.732 171.949 226.619 171.54ZM224.211 162.679C224.2 162.679 224.2 162.667 224.211 162.679L225.358 169.995C225.381 170.006 225.392 170.006 225.415 170.018L226.301 170.426C225.574 167.893 224.87 165.303 224.211 162.679ZM226.619 171.54C226.29 171.847 225.869 172.017 225.415 172.017L226.971 172.744C226.857 172.346 226.732 171.949 226.619 171.54Z" fill="#462A71"/>
<path d="M304.859 136.481C304.859 136.481 307.131 135.277 308.948 136.481C310.776 137.685 306.904 149.909 306.904 149.909C306.904 149.909 304.166 142.797 304.859 136.481Z" fill="#A0604F"/>
<path d="M309.959 134.947C308.937 134.277 307.812 134.084 306.79 134.129C306.109 134.152 305.461 134.3 304.927 134.482C304.564 134.595 304.257 134.731 304.007 134.856C303.485 135.14 303.122 135.652 303.042 136.242V136.276C302.804 138.503 302.94 140.787 303.247 142.866C303.86 147.035 305.121 150.352 305.2 150.557C305.291 150.784 305.427 150.988 305.586 151.159C305.927 151.511 306.404 151.727 306.904 151.727H306.96C307.131 151.727 307.301 151.693 307.46 151.636C308.017 151.466 308.46 151.023 308.641 150.454C312.923 136.913 310.845 135.538 309.959 134.947ZM306.858 142.264C306.642 140.832 306.529 139.31 306.586 137.81C306.62 137.799 306.654 137.799 306.699 137.799C306.994 137.753 307.312 137.742 307.619 137.833C307.699 138.674 307.437 140.525 306.938 142.809C306.904 142.627 306.881 142.445 306.858 142.264Z" fill="#462A71"/>
<path d="M274.615 268.979C274.615 268.979 275.069 260.618 281.145 260.47C287.221 260.323 316.955 259.153 316.955 259.153C316.955 259.153 321.554 257.937 320.646 266.548C320.01 272.638 313.661 323.385 313.661 323.385H269.152L274.615 268.979Z" fill="#462A71"/>
<path d="M320.476 258.346C319.01 257.096 317.375 257.221 316.739 257.335C314.513 257.414 286.881 258.505 281.1 258.641C274.99 258.8 273.002 265.355 272.798 268.832L270.572 291.008L270.39 292.837L270.208 294.654L269.413 302.539L269.254 304.05L269.209 304.572L269.05 306.174L268.982 306.856L268.868 307.889L268.686 309.718L267.528 321.272L267.335 323.203C267.301 323.556 267.369 323.919 267.539 324.226C267.596 324.362 267.687 324.487 267.789 324.601C268.141 324.987 268.629 325.203 269.152 325.203H313.661C314.581 325.203 315.353 324.521 315.467 323.612C315.592 322.624 317.023 311.229 318.556 298.846C318.636 298.199 318.715 297.54 318.806 296.881C318.874 296.233 318.954 295.575 319.045 294.938C320.612 282.283 322.156 269.627 322.463 266.741C322.883 262.663 322.213 259.845 320.476 258.346ZM315.569 293.302C315.49 293.939 315.41 294.575 315.331 295.211C315.251 295.847 315.172 296.472 315.104 297.108C314.683 300.482 314.263 303.811 313.888 306.89C313.457 310.264 313.082 313.342 312.764 315.899C312.457 318.341 312.207 320.295 312.048 321.556H271.162L271.253 320.613C271.253 320.613 271.253 320.613 271.253 320.602L271.537 317.887L272.355 309.741L272.536 307.912L272.764 305.595L272.9 304.299L272.957 303.743L273.116 302.175L273.138 301.902L273.865 294.654L274.047 292.837L274.24 291.008L276.432 269.161V269.082C276.443 269.013 276.852 262.402 281.191 262.288C287.21 262.14 316.728 260.982 317.023 260.97C317.114 260.97 317.273 260.936 317.364 260.925C317.443 260.913 317.818 260.857 318.125 261.141C318.397 261.391 319.238 262.492 318.84 266.355C318.556 269.093 317.091 281.056 315.569 293.302Z" fill="#462A71"/>
<path d="M194.398 363.806C194.092 363.806 193.785 363.727 193.501 363.568C192.627 363.079 192.309 361.966 192.808 361.08C193.785 359.341 202.462 344.016 205.631 341.164C208.731 338.381 222.882 330.292 224.484 329.384C225.347 328.884 226.471 329.19 226.971 330.065C227.471 330.94 227.164 332.053 226.29 332.553C222.031 334.973 210.446 341.732 208.072 343.868C206.017 345.72 199.566 356.501 195.977 362.863C195.659 363.477 195.034 363.806 194.398 363.806Z" fill="#462A71"/>
<path d="M195.92 431.89C195.33 431.89 194.75 431.595 194.398 431.072C193.842 430.231 194.08 429.095 194.921 428.55C204.347 422.37 225.131 400.126 230.56 391.98C235.727 384.221 238.748 359.887 238.771 359.637C238.896 358.637 239.805 357.933 240.804 358.046C241.804 358.171 242.519 359.08 242.394 360.08C242.269 361.114 239.237 385.527 233.592 394.002C227.993 402.409 206.959 425.005 196.92 431.595C196.613 431.788 196.272 431.89 195.92 431.89Z" fill="#462A71"/>
<path d="M196.658 359.887C195.863 359.887 195.125 359.353 194.898 358.546L169.549 266.423C169.276 265.458 169.855 264.447 170.821 264.185C171.797 263.924 172.797 264.492 173.058 265.458L198.407 357.58C198.68 358.546 198.101 359.557 197.135 359.819C196.976 359.864 196.817 359.887 196.658 359.887Z" fill="#462A71"/>
<path d="M377.921 382.653C377.114 382.653 376.387 382.119 376.16 381.313C374.854 376.53 367.268 372.44 364.451 371.27C364.076 371.111 363.758 370.827 363.565 370.475C363.145 369.714 353.173 351.821 351.049 347.265C349.755 344.482 343.031 341.539 339.101 340.335C338.136 340.04 337.602 339.017 337.886 338.063C338.182 337.097 339.192 336.552 340.158 336.847C341.362 337.211 351.947 340.574 354.343 345.72C356.217 349.742 364.735 365.101 366.438 368.168C368.88 369.282 377.875 373.781 379.658 380.358C379.92 381.324 379.352 382.335 378.375 382.596C378.25 382.631 378.08 382.653 377.921 382.653Z" fill="#462A71"/>
<path d="M339.658 425.153C339.442 425.153 339.215 425.108 338.999 425.028C336.444 424.006 332.503 418.189 326.12 407.817C325.314 406.51 324.632 405.386 324.133 404.613C322.429 401.966 320.135 394.48 317.92 387.232C316.5 382.596 315.035 377.802 314.343 376.53C312.253 372.701 313.956 364.374 314.161 363.431C314.377 362.443 315.342 361.829 316.33 362.034C317.318 362.25 317.943 363.215 317.727 364.204C317.08 367.237 316.455 372.792 317.545 374.78C318.374 376.291 319.556 380.086 321.407 386.152C323.349 392.503 325.768 400.398 327.199 402.625C327.71 403.42 328.403 404.556 329.232 405.897C331.731 409.953 338.352 420.734 340.362 421.643C341.271 422.052 341.714 423.12 341.327 424.028C341.021 424.733 340.362 425.153 339.658 425.153Z" fill="#462A71"/>
<path d="M347.631 343.8C347.506 343.8 347.37 343.789 347.233 343.755C346.245 343.539 345.632 342.562 345.848 341.585L361.566 270.115C361.782 269.127 362.759 268.502 363.735 268.729C364.724 268.945 365.337 269.922 365.121 270.899L349.403 342.369C349.221 343.221 348.46 343.8 347.631 343.8Z" fill="#462A71"/>
<path d="M251.98 187.831C251.98 187.831 261.633 197.305 268.686 196.851C275.739 196.397 281.906 190.875 285.393 187.831C285.393 187.831 270.367 188.899 267.698 188.899C265.052 188.899 251.98 187.831 251.98 187.831Z" fill="white"/>
<path d="M286.529 187.365C286.324 186.876 285.824 186.558 285.313 186.615C285.166 186.627 270.31 187.672 267.71 187.672C266.892 187.672 265.041 187.569 262.883 187.422C261.236 187.32 259.43 187.183 257.772 187.058H257.761C255.489 186.888 253.502 186.729 252.593 186.661C252.275 186.638 252.093 186.615 252.082 186.615C251.56 186.592 251.083 186.854 250.878 187.32C250.662 187.785 250.765 188.331 251.128 188.694C251.526 189.092 260.782 198.078 268.198 198.078C268.391 198.078 268.584 198.067 268.766 198.055C270.708 197.93 272.571 197.465 274.331 196.772C275.08 196.476 275.807 196.147 276.512 195.772H276.523C277.204 195.431 277.852 195.067 278.488 194.681C281.486 192.841 284.03 190.637 285.915 188.99L286.199 188.74C286.597 188.399 286.722 187.842 286.529 187.365ZM255.523 189.33C256.534 189.41 257.681 189.501 258.862 189.58C260.589 189.705 262.372 189.83 263.928 189.921H263.939C265.62 190.035 267.005 190.103 267.71 190.103C267.937 190.103 268.232 190.092 268.595 190.08C271.321 189.989 277.704 189.58 281.804 189.296C280.066 190.716 278.033 192.227 275.773 193.42C275.081 193.795 274.365 194.136 273.627 194.431C272.798 194.761 271.946 195.045 271.071 195.249C270.265 195.454 269.436 195.579 268.607 195.635C264.291 195.897 258.76 191.989 255.523 189.33Z" fill="#462A71"/>
<path d="M277.25 180.844C276.773 180.844 276.318 180.56 276.125 180.083C275.875 179.458 276.171 178.754 276.795 178.504C280.68 176.936 281.463 175.766 281.577 175.221C281.759 174.346 280.577 173.119 279.442 171.949C278.647 171.131 277.818 170.279 277.238 169.336C274.762 165.382 276.841 155.817 277.079 154.749C277.227 154.09 277.874 153.681 278.533 153.829C279.192 153.976 279.601 154.624 279.453 155.283C278.851 157.941 277.647 165.405 279.294 168.041C279.748 168.756 280.475 169.518 281.179 170.245C282.69 171.801 284.405 173.573 283.951 175.72C283.553 177.618 281.622 179.174 277.704 180.753C277.556 180.81 277.397 180.844 277.25 180.844Z" fill="#462A71"/>
<path d="M252.525 160.486C248.607 160.486 245.131 157.748 244.984 157.634C244.461 157.214 244.37 156.453 244.791 155.93C245.211 155.408 245.972 155.317 246.494 155.737C246.528 155.76 249.651 158.202 252.763 158.055C255.978 157.918 257.829 156.748 257.84 156.737C258.397 156.373 259.158 156.532 259.521 157.089C259.884 157.646 259.737 158.396 259.18 158.77C259.089 158.839 256.795 160.327 252.854 160.497C252.752 160.475 252.638 160.486 252.525 160.486Z" fill="#462A71"/>
<path d="M288.346 160.031C285.313 160.031 281.997 158.202 281.849 158.123C281.259 157.793 281.054 157.055 281.372 156.476C281.702 155.885 282.44 155.68 283.019 155.998C283.053 156.021 286.211 157.759 288.596 157.6C290.651 157.487 293.275 156.158 294.104 155.646C294.683 155.294 295.421 155.487 295.774 156.055C296.126 156.635 295.933 157.373 295.365 157.725C295.217 157.816 291.798 159.861 288.721 160.031C288.607 160.02 288.482 160.031 288.346 160.031Z" fill="#462A71"/>
<path d="M292.786 148.83C292.627 148.83 292.457 148.796 292.298 148.728C286.642 146.217 283.394 147.887 283.258 147.955C282.667 148.273 281.929 148.057 281.611 147.467C281.293 146.876 281.497 146.149 282.077 145.831C282.258 145.729 286.438 143.468 293.275 146.501C293.888 146.774 294.161 147.489 293.888 148.103C293.706 148.557 293.252 148.83 292.786 148.83Z" fill="#462A71"/>
<path d="M261.338 149.716C261.213 149.716 261.088 149.693 260.963 149.659C260.884 149.637 253.252 147.183 246.699 149.432C246.074 149.648 245.37 149.318 245.154 148.682C244.938 148.046 245.268 147.353 245.904 147.137C253.252 144.604 261.384 147.239 261.724 147.353C262.36 147.569 262.712 148.251 262.497 148.887C262.326 149.387 261.849 149.716 261.338 149.716Z" fill="#462A71"/>
<path d="M252.127 185.206C251.968 185.206 251.798 185.172 251.639 185.104C251.026 184.832 250.753 184.116 251.026 183.502L251.639 182.116C251.912 181.503 252.627 181.23 253.24 181.503C253.854 181.776 254.126 182.491 253.854 183.105L253.24 184.491C253.036 184.934 252.593 185.206 252.127 185.206Z" fill="#462A71"/>
<path d="M255.387 185.206C255.228 185.206 255.058 185.172 254.899 185.104C254.285 184.832 254.013 184.116 254.285 183.502L254.899 182.116C255.171 181.503 255.887 181.23 256.5 181.503C257.113 181.776 257.386 182.491 257.113 183.105L256.5 184.491C256.307 184.934 255.853 185.206 255.387 185.206Z" fill="#462A71"/>
<path d="M258.204 185.206C258.045 185.206 257.874 185.172 257.715 185.104C257.102 184.832 256.829 184.116 257.102 183.502L257.715 182.116C257.988 181.503 258.703 181.23 259.317 181.503C259.93 181.776 260.202 182.491 259.93 183.105L259.317 184.491C259.112 184.934 258.669 185.206 258.204 185.206Z" fill="#462A71"/>
<path d="M261.668 185.536C261.509 185.536 261.338 185.502 261.179 185.434C260.566 185.161 260.293 184.445 260.566 183.832L261.179 182.446C261.452 181.832 262.167 181.56 262.781 181.832C263.394 182.105 263.666 182.821 263.394 183.434L262.781 184.82C262.576 185.263 262.133 185.536 261.668 185.536Z" fill="#462A71"/>
<path d="M263.825 185.9C263.666 185.9 263.496 185.865 263.337 185.797C262.724 185.525 262.451 184.809 262.724 184.195L263.337 182.809C263.61 182.196 264.325 181.923 264.938 182.196C265.552 182.469 265.824 183.184 265.552 183.798L264.938 185.184C264.734 185.627 264.291 185.9 263.825 185.9Z" fill="#462A71"/>
<path d="M274.842 185.899C274.683 185.899 274.513 185.865 274.354 185.797C273.74 185.524 273.468 184.809 273.729 184.195L274.342 182.809C274.615 182.196 275.33 181.912 275.944 182.184C276.557 182.457 276.829 183.173 276.568 183.786L275.955 185.172C275.751 185.627 275.308 185.899 274.842 185.899Z" fill="#462A71"/>
<path d="M278.261 185.206C278.102 185.206 277.931 185.172 277.772 185.104C277.159 184.832 276.886 184.116 277.159 183.502L277.772 182.116C278.045 181.503 278.76 181.23 279.373 181.503C279.987 181.776 280.259 182.491 279.987 183.105L279.373 184.491C279.169 184.934 278.726 185.206 278.261 185.206Z" fill="#462A71"/>
<path d="M280.986 185.206C280.827 185.206 280.657 185.172 280.498 185.104C279.885 184.832 279.612 184.116 279.885 183.502L280.498 182.116C280.77 181.503 281.486 181.23 282.099 181.503C282.713 181.776 282.985 182.491 282.713 183.105L282.099 184.491C281.906 184.934 281.452 185.206 280.986 185.206Z" fill="#462A71"/>
<path d="M283.417 185.206C283.258 185.206 283.087 185.172 282.928 185.104C282.315 184.832 282.042 184.116 282.315 183.502L282.928 182.116C283.201 181.503 283.916 181.23 284.53 181.503C285.143 181.776 285.416 182.491 285.143 183.105L284.53 184.491C284.337 184.934 283.882 185.206 283.417 185.206Z" fill="#462A71"/>
<path d="M285.927 185.206C285.768 185.206 285.597 185.172 285.438 185.104C284.825 184.832 284.552 184.116 284.825 183.502L285.438 182.116C285.711 181.503 286.426 181.23 287.04 181.503C287.653 181.776 287.926 182.491 287.653 183.105L287.04 184.491C286.835 184.934 286.392 185.206 285.927 185.206Z" fill="#462A71"/>
<path d="M288.289 186.229C288.13 186.229 287.96 186.195 287.801 186.127C287.187 185.854 286.915 185.138 287.187 184.525L287.801 183.139C288.073 182.525 288.789 182.253 289.402 182.525C290.015 182.798 290.288 183.514 290.015 184.127L289.402 185.513C289.198 185.968 288.755 186.229 288.289 186.229Z" fill="#462A71"/>
<path d="M290.64 186.229C290.481 186.229 290.311 186.195 290.152 186.127C289.538 185.854 289.266 185.138 289.538 184.525L290.152 183.139C290.424 182.525 291.14 182.253 291.753 182.525C292.366 182.798 292.639 183.514 292.366 184.127L291.753 185.513C291.549 185.968 291.106 186.229 290.64 186.229Z" fill="#462A71"/>
<path d="M248.868 186.229C248.709 186.229 248.538 186.195 248.379 186.127C247.766 185.854 247.494 185.138 247.766 184.525L248.379 183.139C248.652 182.525 249.368 182.253 249.981 182.525C250.594 182.798 250.867 183.514 250.594 184.127L249.981 185.513C249.776 185.968 249.333 186.229 248.868 186.229Z" fill="#462A71"/>
<path d="M245.733 187.286C245.574 187.286 245.404 187.251 245.245 187.183C244.632 186.911 244.359 186.195 244.632 185.581L245.245 184.195C245.517 183.582 246.233 183.309 246.846 183.582C247.459 183.855 247.732 184.57 247.459 185.184L246.846 186.57C246.653 187.013 246.199 187.286 245.733 187.286Z" fill="#462A71"/>
<path d="M261.974 205.735C261.815 205.735 261.645 205.701 261.486 205.633C260.873 205.36 260.6 204.644 260.873 204.031L261.486 202.645C261.758 202.031 262.474 201.759 263.087 202.031C263.701 202.304 263.973 203.02 263.7 203.633L263.087 205.019C262.883 205.462 262.44 205.735 261.974 205.735Z" fill="#462A71"/>
<path d="M264.439 207.121C264.28 207.121 264.109 207.087 263.95 207.019C263.337 206.746 263.064 206.03 263.337 205.417L263.95 204.031C264.223 203.417 264.938 203.145 265.552 203.417C266.165 203.69 266.438 204.406 266.165 205.019L265.552 206.405C265.347 206.86 264.904 207.121 264.439 207.121Z" fill="#462A71"/>
<path d="M267.403 207.825C267.244 207.825 267.074 207.791 266.915 207.723C266.301 207.45 266.029 206.735 266.301 206.121L266.915 204.735C267.187 204.122 267.903 203.849 268.516 204.122C269.129 204.394 269.402 205.11 269.129 205.724L268.516 207.11C268.323 207.553 267.869 207.825 267.403 207.825Z" fill="#462A71"/>
<path d="M270.662 207.825C270.503 207.825 270.333 207.791 270.174 207.723C269.561 207.45 269.288 206.735 269.561 206.121L270.174 204.735C270.447 204.122 271.162 203.849 271.775 204.122C272.389 204.394 272.661 205.11 272.389 205.724L271.775 207.11C271.571 207.553 271.128 207.825 270.662 207.825Z" fill="#462A71"/>
<path d="M273.933 207.121C273.774 207.121 273.604 207.087 273.445 207.019C272.832 206.746 272.559 206.03 272.832 205.417L273.445 204.031C273.718 203.417 274.433 203.145 275.046 203.417C275.66 203.69 275.932 204.406 275.66 205.019L275.046 206.405C274.842 206.86 274.399 207.121 273.933 207.121Z" fill="#462A71"/>
<path d="M275.751 206.701C275.592 206.701 275.421 206.667 275.262 206.598C274.649 206.326 274.376 205.61 274.649 204.997L275.262 203.611C275.535 202.997 276.25 202.725 276.864 202.997C277.477 203.27 277.749 203.986 277.477 204.599L276.864 205.985C276.659 206.428 276.216 206.701 275.751 206.701Z" fill="#462A71"/>
<path d="M222.383 163.36C222.36 163.292 222.349 163.224 222.349 163.156C222.405 163.394 222.474 163.644 222.542 163.883C222.474 163.701 222.428 163.519 222.383 163.36Z" fill="#462A71"/>
<path d="M305.961 126.109C305.927 126.075 299.771 113.998 299.737 113.976C296.989 111.556 299.737 109.511 299.737 106.875C299.737 104.24 297.307 101.206 294.74 101.411C292.185 101.615 282.52 105.262 280.032 106.682C277.545 108.091 274.036 111.283 268.686 111.545C263.03 111.817 259.612 108.284 258.397 107.421C258.249 107.318 258.113 107.239 257.954 107.159C256.25 106.33 246.403 102.581 242.633 102.831C236.329 103.229 230.458 110.522 231.06 114.987C231.673 119.44 234.512 128.563 231.673 131.8C228.834 135.05 226.199 142.139 226.199 146.694C226.199 151.159 221.758 159.77 222.349 163.156C216.431 139.662 213.569 113.714 222.053 99.9908C238.76 72.9413 266.71 77.8036 266.71 77.8036C293.638 81.7003 302.633 97.3893 305.211 111.204C305.791 114.271 308.289 128.199 305.961 126.109Z" fill="#462A71"/>
<path d="M282.815 344.766L304.848 354.241C304.848 354.241 314.422 362.897 318.67 363.658C322.929 364.42 327.79 362.443 329.459 360.773C331.129 359.103 337.057 350.901 337.659 349.378C338.272 347.856 339.942 341.176 339.635 338.586C339.329 336.007 337.057 332.36 336.751 330.077C336.444 327.793 335.535 315.944 332.037 312.752C328.539 309.559 324.894 304.39 323.531 301.198C322.168 298.006 316.387 295.722 316.387 295.722L298.919 287.361C298.919 287.361 292.082 284.475 290.719 289.644C289.357 294.813 295.433 297.699 295.433 297.699C295.433 297.699 312.298 306.356 313.207 308.946C314.115 311.525 311.253 314.876 311.253 314.876L282.826 304.39C282.826 304.39 276.216 302.709 274.626 303.482C273.036 304.254 265.109 302.414 265.54 312.752C265.972 323.09 265.54 338.586 265.54 338.586L282.815 344.766Z" fill="#A0604F"/>
<path d="M314.922 308.332C314.774 307.912 314.411 307.424 313.888 306.89C310.992 303.981 302.997 299.539 296.216 296.052C296.182 296.04 296.046 295.972 295.842 295.847C296.046 296.245 296.16 296.688 296.182 297.165L296.239 297.994C296.239 298.04 296.239 298.074 296.25 298.119V298.131C296.285 298.801 296.319 299.494 296.262 300.187C303.247 303.868 310.674 308.276 311.481 309.548C311.765 310.332 311.231 311.638 310.583 312.684L309.607 312.32L307.687 311.616L305.563 310.832L301.327 309.275L296.603 307.526H296.591L292.264 305.935L290.299 305.208C289.027 305.39 287.494 305.47 285.677 305.447H285.529C282.406 305.401 280.157 305.379 278.556 305.356C279.691 305.538 280.986 305.799 282.19 306.094L282.281 306.129L287.187 307.935L291.742 309.616L305.7 314.763V314.774L307.449 315.41L309.164 316.046L310.617 316.58C311.322 316.842 312.128 316.637 312.628 316.058C312.65 316.024 312.696 315.978 312.764 315.899C313.445 315.058 316.058 311.548 314.922 308.332ZM314.922 308.332C314.774 307.912 314.411 307.424 313.888 306.89C310.992 303.981 302.997 299.539 296.216 296.052C296.182 296.04 296.046 295.972 295.842 295.847C296.046 296.245 296.16 296.688 296.182 297.165L296.239 297.994C296.239 298.04 296.239 298.074 296.25 298.119V298.131C296.285 298.801 296.319 299.494 296.262 300.187C303.247 303.868 310.674 308.276 311.481 309.548C311.765 310.332 311.231 311.638 310.583 312.684L309.607 312.32L307.687 311.616L305.563 310.832L301.327 309.275L296.603 307.526H296.591C296.182 307.549 295.762 307.56 295.365 307.583C294.956 307.605 294.558 307.628 294.172 307.651C293.843 307.662 293.525 307.685 293.218 307.696C292.786 307.73 292.389 307.753 292.003 307.776L287.494 306.117H287.483C286.063 306.117 284.257 306.129 282.281 306.129L287.187 307.935L291.742 309.616L305.7 314.763V314.774L307.449 315.41L309.164 316.046L310.617 316.58C311.322 316.842 312.128 316.637 312.628 316.058C312.65 316.024 312.696 315.978 312.764 315.899C313.445 315.058 316.058 311.548 314.922 308.332ZM314.922 308.332C314.774 307.912 314.411 307.424 313.888 306.89C310.992 303.981 302.997 299.539 296.216 296.052C296.182 296.04 296.046 295.972 295.842 295.847C296.046 296.245 296.16 296.688 296.182 297.165L296.239 297.994C296.239 298.04 296.239 298.074 296.25 298.119V298.131C296.285 298.801 296.319 299.494 296.262 300.187C303.247 303.868 310.674 308.276 311.481 309.548C311.765 310.332 311.231 311.638 310.583 312.684L309.607 312.32L307.687 311.616L305.563 310.832L301.327 309.275L296.603 307.526H296.591C296.182 307.549 295.762 307.56 295.365 307.583C294.956 307.605 294.558 307.628 294.172 307.651C293.843 307.662 293.525 307.685 293.218 307.696C292.786 307.73 292.389 307.753 292.003 307.776L287.494 306.117H287.483C286.063 306.117 284.257 306.129 282.281 306.129L287.187 307.935L291.742 309.616L305.7 314.763V314.774L307.449 315.41L309.164 316.046L310.617 316.58C311.322 316.842 312.128 316.637 312.628 316.058C312.65 316.024 312.696 315.978 312.764 315.899C313.445 315.058 316.058 311.548 314.922 308.332ZM314.922 308.332C314.774 307.912 314.411 307.424 313.888 306.89C310.992 303.981 302.997 299.539 296.216 296.052C296.182 296.04 296.046 295.972 295.842 295.847C296.046 296.245 296.16 296.688 296.182 297.165L296.239 297.994C296.239 298.04 296.239 298.074 296.25 298.119V298.131C296.285 298.801 296.319 299.494 296.262 300.187C303.247 303.868 310.674 308.276 311.481 309.548C311.765 310.332 311.231 311.638 310.583 312.684L309.607 312.32L307.687 311.616L305.563 310.832L301.327 309.275L296.603 307.526H296.591C296.182 307.549 295.762 307.56 295.365 307.583C294.956 307.605 294.558 307.628 294.172 307.651C293.843 307.662 293.525 307.685 293.218 307.696C292.786 307.73 292.389 307.753 292.003 307.776L287.494 306.117H287.483C286.063 306.117 284.257 306.129 282.281 306.129L287.187 307.935L291.742 309.616L305.7 314.763V314.774L307.449 315.41L309.164 316.046L310.617 316.58C311.322 316.842 312.128 316.637 312.628 316.058C312.65 316.024 312.696 315.978 312.764 315.899C313.445 315.058 316.058 311.548 314.922 308.332ZM341.452 338.37C341.407 337.984 341.328 337.586 341.225 337.177C340.896 335.916 340.339 334.587 339.783 333.292C339.238 332.008 338.67 330.667 338.556 329.827L338.431 328.747C337.671 321.795 336.444 314.297 333.275 311.4C329.845 308.264 326.415 303.288 325.212 300.471C324.11 297.915 321.066 295.984 319.045 294.938C318.238 294.518 317.591 294.245 317.307 294.12C317.25 294.109 317.205 294.086 317.182 294.075L315.569 293.302L299.635 285.691C299.181 285.498 295.081 283.85 291.923 285.396C290.447 286.123 289.425 287.429 288.959 289.179C288.698 290.167 288.641 291.11 288.755 291.985C288.834 292.712 289.027 293.393 289.311 294.03C289.675 294.893 290.186 295.665 290.765 296.347C291.333 297.017 291.957 297.597 292.582 298.074C293.252 298.585 293.911 298.983 294.467 299.255C294.513 299.289 294.558 299.301 294.592 299.324C295.137 299.608 295.694 299.892 296.262 300.187C303.247 303.868 310.674 308.276 311.481 309.548C311.765 310.332 311.231 311.638 310.583 312.684L309.607 312.32L307.687 311.616L305.563 310.832L301.327 309.275L296.603 307.526H296.591L292.264 305.935L290.299 305.208L286.018 303.629L283.269 302.618C282.077 302.311 280.475 301.948 278.896 301.709C276.988 301.414 275.114 301.312 274.058 301.743C274.001 301.755 273.945 301.777 273.899 301.8C273.786 301.834 273.445 301.868 273.138 301.902C273.047 301.914 272.957 301.914 272.877 301.925C272.423 301.971 271.889 302.016 271.287 302.107C270.697 302.198 270.06 302.334 269.413 302.539C267.766 303.073 266.051 304.084 264.938 306.14C264.518 306.89 264.189 307.787 263.984 308.844C263.984 308.844 263.984 308.844 263.984 308.855C263.746 309.98 263.644 311.286 263.712 312.82C264.132 322.976 263.712 338.37 263.712 338.529C263.689 339.313 264.177 340.028 264.916 340.29L273.331 343.3L277.931 344.959C277.931 344.959 277.942 344.959 277.954 344.959L282.145 346.459L282.485 346.606L303.848 355.786C305.12 356.922 309.925 361.125 314.127 363.613C315.331 364.34 316.5 364.919 317.511 365.238C317.807 365.328 318.079 365.408 318.352 365.453C319.113 365.59 319.885 365.647 320.657 365.647C324.916 365.647 329.062 363.749 330.754 362.057C332.469 360.33 338.625 351.889 339.351 350.048C339.794 348.947 341.01 344.539 341.384 341.119V341.108C341.498 340.051 341.543 339.108 341.452 338.37ZM318.999 361.852C316.273 361.375 309.618 356.092 306.074 352.877C305.927 352.741 305.756 352.639 305.563 352.559L290.697 346.163L286.972 344.561C286.96 344.561 286.949 344.561 286.949 344.561L283.542 343.084C283.508 343.073 283.462 343.062 283.428 343.039L283.099 342.925L267.38 337.302C267.437 334.95 267.539 329.815 267.539 324.226C267.539 323.249 267.539 322.261 267.528 321.272C267.516 318.296 267.46 315.308 267.346 312.672C267.301 311.502 267.357 310.525 267.528 309.718C267.664 308.98 267.88 308.378 268.152 307.889C268.391 307.469 268.675 307.128 268.982 306.856C269.538 306.367 270.197 306.072 270.901 305.89C271.503 305.742 272.139 305.663 272.764 305.595L273.206 305.561C274.092 305.481 274.796 305.413 275.342 305.14C275.773 305.015 277.034 305.106 278.556 305.356C279.691 305.538 280.986 305.799 282.19 306.094L282.281 306.129L287.187 307.935L291.742 309.616L305.7 314.763V314.774L307.449 315.41L309.164 316.046L310.617 316.58C311.322 316.842 312.128 316.637 312.628 316.058C312.65 316.024 312.696 315.978 312.764 315.899C313.445 315.058 316.058 311.548 314.922 308.332C314.774 307.912 314.411 307.424 313.888 306.89C310.992 303.981 302.997 299.539 296.216 296.052C296.182 296.04 296.046 295.972 295.842 295.847C295.217 295.495 293.911 294.654 293.093 293.416C292.491 292.519 292.139 291.405 292.48 290.11C292.73 289.156 293.195 288.838 293.525 288.667C294.944 287.974 297.454 288.724 298.136 289.008L315.104 297.108L315.728 297.415C316.001 297.529 316.387 297.699 316.841 297.915C317.352 298.165 317.954 298.483 318.556 298.846C319.953 299.698 321.373 300.789 321.861 301.914C323.247 305.14 326.972 310.582 330.811 314.092C332.537 315.66 333.877 320.727 334.808 329.156C334.865 329.645 334.911 330.043 334.945 330.304C335.126 331.644 335.762 333.133 336.433 334.723C337.057 336.189 337.705 337.7 337.83 338.79C338.068 340.835 336.592 347.14 335.967 348.685C335.479 349.889 329.8 357.842 328.176 359.478C326.983 360.671 322.77 362.534 318.999 361.852ZM314.922 308.332C314.774 307.912 314.411 307.424 313.888 306.89C310.992 303.981 302.997 299.539 296.216 296.052C296.182 296.04 296.046 295.972 295.842 295.847C296.046 296.245 296.16 296.688 296.182 297.165L296.239 297.994C296.239 298.04 296.239 298.074 296.25 298.119V298.131C296.285 298.801 296.319 299.494 296.262 300.187C303.247 303.868 310.674 308.276 311.481 309.548C311.765 310.332 311.231 311.638 310.583 312.684L309.607 312.32L307.687 311.616L305.563 310.832L301.327 309.275L296.603 307.526H296.591C296.182 307.549 295.762 307.56 295.365 307.583C294.956 307.605 294.558 307.628 294.172 307.651C293.843 307.662 293.525 307.685 293.218 307.696C292.786 307.73 292.389 307.753 292.003 307.776L287.494 306.117H287.483C286.063 306.117 284.257 306.129 282.281 306.129L287.187 307.935L291.742 309.616L305.7 314.763V314.774L307.449 315.41L309.164 316.046L310.617 316.58C311.322 316.842 312.128 316.637 312.628 316.058C312.65 316.024 312.696 315.978 312.764 315.899C313.445 315.058 316.058 311.548 314.922 308.332ZM314.922 308.332C314.774 307.912 314.411 307.424 313.888 306.89C310.992 303.981 302.997 299.539 296.216 296.052C296.182 296.04 296.046 295.972 295.842 295.847C296.046 296.245 296.16 296.688 296.182 297.165L296.239 297.994C296.239 298.04 296.239 298.074 296.25 298.119V298.131C296.285 298.801 296.319 299.494 296.262 300.187C303.247 303.868 310.674 308.276 311.481 309.548C311.765 310.332 311.231 311.638 310.583 312.684L309.607 312.32L307.687 311.616L305.563 310.832L301.327 309.275L296.603 307.526H296.591C296.182 307.549 295.762 307.56 295.365 307.583C294.956 307.605 294.558 307.628 294.172 307.651C293.843 307.662 293.525 307.685 293.218 307.696C292.786 307.73 292.389 307.753 292.003 307.776L287.494 306.117H287.483C286.063 306.117 284.257 306.129 282.281 306.129L287.187 307.935L291.742 309.616L305.7 314.763V314.774L307.449 315.41L309.164 316.046L310.617 316.58C311.322 316.842 312.128 316.637 312.628 316.058C312.65 316.024 312.696 315.978 312.764 315.899C313.445 315.058 316.058 311.548 314.922 308.332ZM314.922 308.332C314.774 307.912 314.411 307.424 313.888 306.89C310.992 303.981 302.997 299.539 296.216 296.052C296.182 296.04 296.046 295.972 295.842 295.847C296.046 296.245 296.16 296.688 296.182 297.165L296.239 297.994C296.239 298.04 296.239 298.074 296.25 298.119V298.131C296.285 298.801 296.319 299.494 296.262 300.187C303.247 303.868 310.674 308.276 311.481 309.548C311.765 310.332 311.231 311.638 310.583 312.684L309.607 312.32L307.687 311.616L305.563 310.832L301.327 309.275L296.603 307.526H296.591C296.182 307.549 295.762 307.56 295.365 307.583C294.956 307.605 294.558 307.628 294.172 307.651C293.843 307.662 293.525 307.685 293.218 307.696C292.786 307.73 292.389 307.753 292.003 307.776L287.494 306.117H287.483C286.063 306.117 284.257 306.129 282.281 306.129L287.187 307.935L291.742 309.616L305.7 314.763V314.774L307.449 315.41L309.164 316.046L310.617 316.58C311.322 316.842 312.128 316.637 312.628 316.058C312.65 316.024 312.696 315.978 312.764 315.899C313.445 315.058 316.058 311.548 314.922 308.332Z" fill="#462A71"/>
<path d="M225.392 330.985C225.392 330.985 233.695 326.532 234.91 324.907C236.125 323.283 240.884 309.412 245.143 305.004C249.402 300.596 252.888 298.778 255.625 297.858C258.363 296.949 266.563 292.848 266.563 292.848H281.145C281.145 292.848 294.206 293.609 294.365 297.256C294.513 300.903 295.58 303.788 285.552 303.64C275.523 303.493 274.615 303.493 274.615 303.493L265.529 307.901C265.529 307.901 286.62 308.048 290.106 307.901C293.604 307.753 303.78 306.833 305.757 308.207C307.733 309.571 308.039 312.763 307.733 314.592C307.426 316.421 305.302 318.091 300.589 317.932C295.876 317.784 272.184 319.602 272.184 319.602C272.184 319.602 267.471 323.101 276.591 324.317C285.711 325.532 300.896 325.839 300.896 325.839C300.896 325.839 309.709 325.385 309.096 331.008C308.482 336.632 301.657 336.177 299.521 336.177C297.398 336.177 277.954 336.188 277.954 336.188C277.954 336.188 298.772 338.313 300.282 339.369C301.804 340.437 301.35 342.869 296.637 343.777C291.923 344.686 268.527 345.3 268.527 345.3C268.527 345.3 251.514 353.661 249.992 354.263C248.47 354.877 241.94 355.626 241.94 355.626L240.577 359.887C240.577 359.887 226.755 357.308 225.381 348.492C224.029 339.642 225.392 330.985 225.392 330.985Z" fill="#A0604F"/>
<path d="M296.603 307.526H296.591C296.182 307.549 295.762 307.56 295.365 307.583C294.956 307.605 294.558 307.628 294.172 307.651C293.843 307.662 293.525 307.685 293.218 307.696C292.786 307.73 292.389 307.753 292.003 307.776L287.494 306.117H287.483C286.063 306.117 284.257 306.128 282.281 306.128C279.419 306.128 276.216 306.117 273.377 306.106L275.024 305.299C275.501 305.311 276.5 305.322 278.556 305.356C277.034 305.106 275.773 305.015 275.342 305.14C274.797 305.413 274.092 305.481 273.207 305.56L272.764 305.595L272.9 304.299L272.957 303.743L273.116 302.175L271.185 303.118L269.254 304.05L264.938 306.14L264.734 306.242C263.973 306.606 263.564 307.458 263.746 308.287C263.791 308.491 263.871 308.673 263.984 308.844C263.984 308.844 263.984 308.844 263.984 308.855C264.314 309.366 264.882 309.696 265.518 309.707H265.688C265.995 309.707 266.642 309.718 267.528 309.718H268.686C269.243 309.73 269.856 309.73 270.515 309.73C271.094 309.741 271.707 309.741 272.355 309.741C278.862 309.775 287.948 309.798 290.186 309.707C290.617 309.684 291.14 309.65 291.742 309.616C291.969 309.605 292.207 309.582 292.446 309.571C293.366 309.514 294.774 309.434 296.307 309.366C297.977 309.298 299.794 309.241 301.327 309.275L296.603 307.526ZM269.243 322.317L269.47 320.079C269.163 320.761 269.038 321.522 269.243 322.317ZM296.603 307.526H296.591C296.182 307.549 295.762 307.56 295.365 307.583C294.956 307.605 294.558 307.628 294.172 307.651C293.843 307.662 293.525 307.685 293.218 307.696C292.786 307.73 292.389 307.753 292.003 307.776L287.494 306.117H287.483C286.063 306.117 284.257 306.128 282.281 306.128C279.419 306.128 276.216 306.117 273.377 306.106L275.024 305.299C275.501 305.311 276.5 305.322 278.556 305.356C277.034 305.106 275.773 305.015 275.342 305.14C274.797 305.413 274.092 305.481 273.207 305.56L272.764 305.595L272.9 304.299L272.957 303.743L273.116 302.175L271.185 303.118L269.254 304.05L264.938 306.14L264.734 306.242C263.973 306.606 263.564 307.458 263.746 308.287C263.791 308.491 263.871 308.673 263.984 308.844C263.984 308.844 263.984 308.844 263.984 308.855C264.314 309.366 264.882 309.696 265.518 309.707H265.688C265.995 309.707 266.642 309.718 267.528 309.718H268.686C269.243 309.73 269.856 309.73 270.515 309.73C271.094 309.741 271.707 309.741 272.355 309.741C278.862 309.775 287.948 309.798 290.186 309.707C290.617 309.684 291.14 309.65 291.742 309.616C291.969 309.605 292.207 309.582 292.446 309.571C293.366 309.514 294.774 309.434 296.307 309.366C297.977 309.298 299.794 309.241 301.327 309.275L296.603 307.526ZM269.243 322.317L269.47 320.079C269.163 320.761 269.038 321.522 269.243 322.317ZM296.603 307.526H296.591C296.182 307.549 295.762 307.56 295.365 307.583C294.956 307.605 294.558 307.628 294.172 307.651C293.843 307.662 293.525 307.685 293.218 307.696C292.786 307.73 292.389 307.753 292.003 307.776L287.494 306.117H287.483C286.063 306.117 284.257 306.128 282.281 306.128C279.419 306.128 276.216 306.117 273.377 306.106L275.024 305.299C275.501 305.311 276.5 305.322 278.556 305.356C277.034 305.106 275.773 305.015 275.342 305.14C274.797 305.413 274.092 305.481 273.207 305.56L272.764 305.595L272.9 304.299L272.957 303.743L273.116 302.175L271.185 303.118L269.254 304.05L264.938 306.14L264.734 306.242C263.973 306.606 263.564 307.458 263.746 308.287C263.791 308.491 263.871 308.673 263.984 308.844C263.984 308.844 263.984 308.844 263.984 308.855C264.314 309.366 264.882 309.696 265.518 309.707H265.688C265.995 309.707 266.642 309.718 267.528 309.718H268.686C269.243 309.73 269.856 309.73 270.515 309.73C271.094 309.741 271.707 309.741 272.355 309.741C278.862 309.775 287.948 309.798 290.186 309.707C290.617 309.684 291.14 309.65 291.742 309.616C291.969 309.605 292.207 309.582 292.446 309.571C293.366 309.514 294.774 309.434 296.307 309.366C297.977 309.298 299.794 309.241 301.327 309.275L296.603 307.526ZM269.243 322.317L269.47 320.079C269.163 320.761 269.038 321.522 269.243 322.317ZM296.603 307.526H296.591C296.182 307.549 295.762 307.56 295.365 307.583C294.956 307.605 294.558 307.628 294.172 307.651C293.843 307.662 293.525 307.685 293.218 307.696C292.786 307.73 292.389 307.753 292.003 307.776L287.494 306.117H287.483C286.063 306.117 284.257 306.128 282.281 306.128C279.419 306.128 276.216 306.117 273.377 306.106L275.024 305.299C275.501 305.311 276.5 305.322 278.556 305.356C277.034 305.106 275.773 305.015 275.342 305.14C274.797 305.413 274.092 305.481 273.207 305.56L272.764 305.595L272.9 304.299L272.957 303.743L273.116 302.175L271.185 303.118L269.254 304.05L264.938 306.14L264.734 306.242C263.973 306.606 263.564 307.458 263.746 308.287C263.791 308.491 263.871 308.673 263.984 308.844C263.984 308.844 263.984 308.844 263.984 308.855C264.314 309.366 264.882 309.696 265.518 309.707H265.688C265.995 309.707 266.642 309.718 267.528 309.718H268.686C269.243 309.73 269.856 309.73 270.515 309.73C271.094 309.741 271.707 309.741 272.355 309.741C278.862 309.775 287.948 309.798 290.186 309.707C290.617 309.684 291.14 309.65 291.742 309.616C291.969 309.605 292.207 309.582 292.446 309.571C293.366 309.514 294.774 309.434 296.307 309.366C297.977 309.298 299.794 309.241 301.327 309.275L296.603 307.526ZM269.243 322.317L269.47 320.079C269.163 320.761 269.038 321.522 269.243 322.317ZM309.47 326.612C308.914 326.021 308.232 325.566 307.517 325.203C304.757 323.84 301.304 323.965 300.93 323.987C300.827 323.987 293.945 323.84 286.733 323.385C283.269 323.169 279.726 322.874 276.829 322.488C274.694 322.204 273.627 321.806 273.127 321.556C273.036 321.511 272.957 321.465 272.9 321.42C272.923 321.397 272.945 321.374 272.957 321.352C276.761 321.068 296.432 319.602 300.532 319.738C306.347 319.909 308.425 317.648 309.164 316.046C309.391 315.558 309.493 315.137 309.538 314.865C309.561 314.683 309.595 314.49 309.607 314.274C309.663 313.717 309.675 313.036 309.607 312.32C309.448 310.343 308.732 308.026 306.801 306.685C304.973 305.413 300.464 305.435 292.264 305.935H292.23C291.367 305.992 290.606 306.038 290.027 306.06C289.516 306.083 288.641 306.094 287.494 306.117H287.483C286.063 306.117 284.257 306.128 282.281 306.128C279.419 306.128 276.216 306.117 273.377 306.106L275.024 305.299C275.501 305.311 276.5 305.322 278.556 305.356C280.157 305.379 282.406 305.401 285.529 305.447H285.677C287.494 305.47 289.027 305.39 290.299 305.208C292.525 304.902 294.002 304.265 294.978 303.254C295.853 302.323 296.171 301.266 296.262 300.187C296.319 299.494 296.285 298.801 296.25 298.131V298.119C296.239 298.074 296.239 298.04 296.239 297.994L296.182 297.165C296.16 296.688 296.046 296.245 295.842 295.847C295.365 294.847 294.377 294.052 293.093 293.416C292.378 293.052 291.56 292.746 290.697 292.484C290.072 292.291 289.425 292.132 288.755 291.985C286.177 291.417 283.371 291.133 281.145 291.008H266.563C266.279 291.008 266.006 291.076 265.745 291.201C263.496 292.325 257.193 295.404 255.046 296.12C251.207 297.404 247.528 299.892 243.825 303.731C240.702 306.969 237.613 314.251 235.353 319.579C234.603 321.374 233.74 323.408 233.456 323.806C232.809 324.612 228.323 327.339 224.529 329.372C224.472 329.406 224.404 329.44 224.347 329.486C223.95 329.77 223.666 330.202 223.587 330.69C223.564 330.838 223.359 332.201 223.189 334.348C222.905 337.779 222.735 343.198 223.587 348.731C224.847 356.797 234.558 360.193 238.555 361.261C239.498 361.5 240.134 361.625 240.248 361.648C240.361 361.67 240.475 361.682 240.588 361.682C241.361 361.682 242.076 361.182 242.315 360.409L242.371 360.25V360.216L242.383 360.193L243.326 357.262C245.427 357.001 249.356 356.456 250.685 355.922C252.139 355.342 266.108 348.492 268.982 347.083C270.594 347.038 276.455 346.867 282.485 346.606C283.871 346.549 285.257 346.481 286.619 346.402H286.631C288.051 346.334 289.425 346.254 290.697 346.163C293.491 345.981 295.796 345.765 296.989 345.538C301.475 344.664 302.565 342.573 302.815 341.403C303.088 340.119 302.588 338.813 301.498 337.961C304.746 337.859 310.288 336.995 310.913 331.179C311.106 329.395 310.606 327.816 309.47 326.612ZM307.29 330.781C307.017 333.36 304.905 334.416 299.998 334.325H299.533L277.954 334.337C276.989 334.337 276.182 335.098 276.137 336.064C276.091 337.029 276.807 337.87 277.772 337.972C286.824 338.892 296.921 340.176 299.113 340.824C298.806 341.108 298.011 341.619 296.296 341.96C294.388 342.323 288.97 342.664 283.099 342.925C281.486 342.994 279.862 343.062 278.249 343.13H278.238C276.546 343.187 274.887 343.255 273.331 343.3C271.548 343.357 269.89 343.414 268.493 343.448C268.232 343.448 267.971 343.516 267.732 343.63C260.918 346.981 250.39 352.105 249.322 352.536C248.516 352.866 244.836 353.423 241.747 353.786C241.031 353.866 240.441 354.365 240.214 355.036L239.362 357.683C235.966 356.763 228.095 354.002 227.198 348.174C226.131 341.346 226.789 334.519 227.073 332.144C229.981 330.554 235.182 327.589 236.375 325.998C236.875 325.328 237.488 323.908 238.714 320.999C240.611 316.523 243.791 309.014 246.449 306.265C249.742 302.857 252.922 300.675 256.205 299.585C258.715 298.744 265.302 295.495 266.994 294.654H281.043C284.757 294.87 288.584 295.586 290.765 296.347C291.73 296.677 292.378 297.017 292.548 297.324L292.582 298.074L292.593 298.222C292.673 299.528 292.707 300.346 292.344 300.732C291.923 301.164 290.504 301.88 285.586 301.8C282.644 301.755 280.475 301.732 278.897 301.709C275.08 301.652 274.615 301.652 274.615 301.652C274.422 301.652 274.24 301.675 274.058 301.743C274.002 301.755 273.945 301.777 273.899 301.8C273.877 301.811 273.843 301.823 273.82 301.834L273.116 302.175L271.185 303.118L269.254 304.05L264.938 306.14L264.734 306.242C263.973 306.606 263.564 307.458 263.746 308.287C263.791 308.491 263.871 308.673 263.984 308.844C263.984 308.844 263.984 308.844 263.984 308.855C264.314 309.366 264.882 309.696 265.518 309.707H265.688C265.995 309.707 266.642 309.718 267.528 309.718H268.686C269.243 309.73 269.856 309.73 270.515 309.73C271.094 309.741 271.707 309.741 272.355 309.741C278.862 309.775 287.948 309.798 290.186 309.707C290.617 309.684 291.14 309.65 291.742 309.616C291.969 309.605 292.207 309.582 292.446 309.571C293.366 309.514 294.774 309.434 296.307 309.366C297.977 309.298 299.794 309.241 301.327 309.275C302.94 309.298 304.235 309.412 304.723 309.684C305.086 309.934 305.37 310.343 305.563 310.832C305.825 311.457 305.961 312.218 305.995 312.933V312.945C306.029 313.433 306.006 313.876 305.938 314.263C305.916 314.433 305.836 314.592 305.7 314.763V314.774C305.109 315.535 303.428 316.171 300.657 316.092C295.91 315.921 273.013 317.694 272.048 317.762C271.878 317.784 271.707 317.819 271.537 317.887C271.378 317.932 271.23 318.012 271.094 318.114C270.469 318.58 269.879 319.239 269.481 320.045C269.47 320.045 269.47 320.057 269.47 320.057V320.079C269.163 320.761 269.038 321.522 269.243 322.317V322.351C269.345 322.749 269.515 323.067 269.743 323.385C270.333 324.215 271.287 324.783 272.377 325.203C273.649 325.68 275.103 325.93 276.352 326.1C285.461 327.316 300.237 327.623 300.986 327.634C302.088 327.577 305.518 327.736 306.824 329.122C307.085 329.406 307.392 329.861 307.29 330.781ZM269.243 322.317L269.47 320.079C269.163 320.761 269.038 321.522 269.243 322.317ZM296.603 307.526H296.591C296.182 307.549 295.762 307.56 295.365 307.583C294.956 307.605 294.558 307.628 294.172 307.651C293.843 307.662 293.525 307.685 293.218 307.696C292.786 307.73 292.389 307.753 292.003 307.776L287.494 306.117H287.483C286.063 306.117 284.257 306.128 282.281 306.128C279.419 306.128 276.216 306.117 273.377 306.106L275.024 305.299C275.501 305.311 276.5 305.322 278.556 305.356C277.034 305.106 275.773 305.015 275.342 305.14C274.797 305.413 274.092 305.481 273.207 305.56L272.764 305.595L272.9 304.299L272.957 303.743L273.116 302.175L271.185 303.118L269.254 304.05L264.938 306.14L264.734 306.242C263.973 306.606 263.564 307.458 263.746 308.287C263.791 308.491 263.871 308.673 263.984 308.844C263.984 308.844 263.984 308.844 263.984 308.855C264.314 309.366 264.882 309.696 265.518 309.707H265.688C265.995 309.707 266.642 309.718 267.528 309.718H268.686C269.243 309.73 269.856 309.73 270.515 309.73C271.094 309.741 271.707 309.741 272.355 309.741C278.862 309.775 287.948 309.798 290.186 309.707C290.617 309.684 291.14 309.65 291.742 309.616C291.969 309.605 292.207 309.582 292.446 309.571C293.366 309.514 294.774 309.434 296.307 309.366C297.977 309.298 299.794 309.241 301.327 309.275L296.603 307.526ZM269.243 322.317L269.47 320.079C269.163 320.761 269.038 321.522 269.243 322.317ZM296.603 307.526H296.591C296.182 307.549 295.762 307.56 295.365 307.583C294.956 307.605 294.558 307.628 294.172 307.651C293.843 307.662 293.525 307.685 293.218 307.696C292.786 307.73 292.389 307.753 292.003 307.776L287.494 306.117H287.483C286.063 306.117 284.257 306.128 282.281 306.128C279.419 306.128 276.216 306.117 273.377 306.106L275.024 305.299C275.501 305.311 276.5 305.322 278.556 305.356C277.034 305.106 275.773 305.015 275.342 305.14C274.797 305.413 274.092 305.481 273.207 305.56L272.764 305.595L272.9 304.299L272.957 303.743L273.116 302.175L271.185 303.118L269.254 304.05L264.938 306.14L264.734 306.242C263.973 306.606 263.564 307.458 263.746 308.287C263.791 308.491 263.871 308.673 263.984 308.844C263.984 308.844 263.984 308.844 263.984 308.855C264.314 309.366 264.882 309.696 265.518 309.707H265.688C265.995 309.707 266.642 309.718 267.528 309.718H268.686C269.243 309.73 269.856 309.73 270.515 309.73C271.094 309.741 271.707 309.741 272.355 309.741C278.862 309.775 287.948 309.798 290.186 309.707C290.617 309.684 291.14 309.65 291.742 309.616C291.969 309.605 292.207 309.582 292.446 309.571C293.366 309.514 294.774 309.434 296.307 309.366C297.977 309.298 299.794 309.241 301.327 309.275L296.603 307.526ZM269.243 322.317L269.47 320.079C269.163 320.761 269.038 321.522 269.243 322.317ZM296.603 307.526H296.591C296.182 307.549 295.762 307.56 295.365 307.583C294.956 307.605 294.558 307.628 294.172 307.651C293.843 307.662 293.525 307.685 293.218 307.696C292.786 307.73 292.389 307.753 292.003 307.776L287.494 306.117H287.483C286.063 306.117 284.257 306.128 282.281 306.128C279.419 306.128 276.216 306.117 273.377 306.106L275.024 305.299C275.501 305.311 276.5 305.322 278.556 305.356C277.034 305.106 275.773 305.015 275.342 305.14C274.797 305.413 274.092 305.481 273.207 305.56L272.764 305.595L272.9 304.299L272.957 303.743L273.116 302.175L271.185 303.118L269.254 304.05L264.938 306.14L264.734 306.242C263.973 306.606 263.564 307.458 263.746 308.287C263.791 308.491 263.871 308.673 263.984 308.844C263.984 308.844 263.984 308.844 263.984 308.855C264.314 309.366 264.882 309.696 265.518 309.707H265.688C265.995 309.707 266.642 309.718 267.528 309.718H268.686C269.243 309.73 269.856 309.73 270.515 309.73C271.094 309.741 271.707 309.741 272.355 309.741C278.862 309.775 287.948 309.798 290.186 309.707C290.617 309.684 291.14 309.65 291.742 309.616C291.969 309.605 292.207 309.582 292.446 309.571C293.366 309.514 294.774 309.434 296.307 309.366C297.977 309.298 299.794 309.241 301.327 309.275L296.603 307.526Z" fill="#462A71"/>
<path d="M269.708 238.715C233.149 238.715 220.497 223.776 219.952 223.117C219.532 222.594 219.6 221.833 220.123 221.413C220.645 220.992 221.406 221.06 221.837 221.583C221.974 221.742 235.375 237.442 273.899 236.227C311.492 235.079 313.911 225.116 313.934 225.025C314.059 224.378 314.672 223.935 315.331 224.048C315.978 224.162 316.421 224.741 316.341 225.389C316.171 226.616 313.57 237.454 273.979 238.669C272.514 238.692 271.094 238.715 269.708 238.715Z" fill="#462A71"/>
<path d="M231.026 370.702C230.878 370.702 230.719 370.679 230.571 370.611C215.807 364.704 215.523 346.674 215.523 346.493C215.523 345.822 216.057 345.277 216.727 345.266C217.317 345.209 217.942 345.8 217.953 346.47C217.953 346.64 218.237 363.056 231.468 368.35C232.093 368.6 232.4 369.305 232.15 369.93C231.957 370.407 231.503 370.702 231.026 370.702Z" fill="#462A71"/>
<path d="M332.026 378.268C324.644 378.268 320.01 374.088 319.93 374.019C319.442 373.565 319.408 372.792 319.874 372.304C320.328 371.815 321.1 371.781 321.589 372.236C322.088 372.69 333.957 383.244 350.47 366.351L352.662 361.477C352.935 360.864 353.65 360.591 354.275 360.864C354.888 361.137 355.161 361.864 354.888 362.477L352.605 367.544C352.548 367.669 352.469 367.794 352.367 367.896C344.553 375.951 337.534 378.268 332.026 378.268Z" fill="#462A71"/>
</g>
</svg>
