<svg width="56" height="57" viewBox="0 0 56 57" fill="none" xmlns="http://www.w3.org/2000/svg">
<rect y="0.404297" width="56" height="56" rx="28" fill="#FA6300"/>
<path fill-rule="evenodd" clip-rule="evenodd" d="M27.5034 38.6005C26.7159 38.8597 25.8743 39 25 39C20.5817 39 17 35.4183 17 31C17 26.5817 20.5817 23 25 23C25.8743 23 26.7159 23.1403 27.5034 23.3995C28.5582 23.0531 29.6756 22.9293 30.7847 23.0386C32.0859 23.1669 33.3359 23.6121 34.4252 24.3354C35.5145 25.0588 36.4099 26.0381 37.0331 27.1876C37.6562 28.3372 37.988 29.6219 37.9996 30.9295C38.0111 32.237 37.702 33.5274 37.0992 34.6878C36.4964 35.8482 35.6184 36.8431 34.542 37.5855C33.4657 38.3279 32.2237 38.7952 30.9249 38.9463C29.7711 39.0807 28.6037 38.9619 27.5034 38.6005ZM31 31C31 34.3137 28.3137 37 25 37C21.6863 37 19 34.3137 19 31C19 27.6863 21.6863 25 25 25C28.3137 25 31 27.6863 31 31ZM30.3002 36.9925C30.4314 36.9859 30.5626 36.975 30.6936 36.9598C31.6678 36.8464 32.5992 36.4959 33.4065 35.9391C34.2138 35.3823 34.8723 34.6361 35.3244 33.7658C35.7764 32.8956 36.0083 31.9278 35.9997 30.9471C35.991 29.9665 35.7421 29.0029 35.2748 28.1407C34.8074 27.2785 34.1359 26.5441 33.3189 26.0016C32.5019 25.4591 31.5644 25.1251 30.5885 25.0289C30.4924 25.0195 30.3963 25.0123 30.3002 25.0075C31.9561 26.4732 33 28.6147 33 31C33 33.3853 31.9561 35.5268 30.3002 36.9925Z" fill="white"/>
<path d="M37 17H35V19L33 19V21H35V23H37V21H39V19L37 19V17Z" fill="white"/>
<path d="M24.4057 33.9243C23.9071 33.8881 23.5007 33.8218 23.1865 33.7254C22.8791 33.623 22.6503 33.5386 22.5 33.4723L22.9406 32.4328C23.1796 32.5352 23.4631 32.6286 23.791 32.713C24.1257 32.7974 24.4775 32.8395 24.8463 32.8395C25.263 32.8395 25.5464 32.7913 25.6967 32.6949C25.8538 32.5925 25.9324 32.4508 25.9324 32.2701C25.9324 32.1556 25.9016 32.0591 25.8402 31.9808C25.7787 31.8964 25.6899 31.8211 25.5738 31.7548C25.4577 31.6885 25.3108 31.6252 25.1332 31.565C24.9556 31.4987 24.7507 31.4294 24.5184 31.3571C24.293 31.2847 24.071 31.2064 23.8525 31.122C23.6407 31.0316 23.446 30.9232 23.2684 30.7966C23.0977 30.6701 22.9577 30.5164 22.8484 30.3356C22.7459 30.1488 22.6947 29.9258 22.6947 29.6667C22.6947 29.4678 22.7254 29.278 22.7869 29.0972C22.8552 28.9104 22.9577 28.7416 23.0943 28.591C23.2309 28.4403 23.4085 28.3137 23.627 28.2113C23.8456 28.1028 24.1052 28.0245 24.4057 27.9763V27H25.6967V27.9401C26.0519 27.9702 26.3559 28.0154 26.6086 28.0757C26.8682 28.136 27.0731 28.1962 27.2234 28.2565L26.9057 29.3412C26.6803 29.2569 26.4173 29.1846 26.1168 29.1243C25.8231 29.064 25.5123 29.0339 25.1844 29.0339C24.8566 29.0339 24.6209 29.0821 24.4775 29.1785C24.334 29.275 24.2623 29.4015 24.2623 29.5582C24.2623 29.6546 24.2828 29.739 24.3238 29.8113C24.3716 29.8776 24.4433 29.9379 24.5389 29.9921C24.6346 30.0463 24.7507 30.1006 24.8873 30.1548C25.0307 30.203 25.2015 30.2573 25.3996 30.3175C25.7001 30.4139 25.9768 30.5194 26.2295 30.6339C26.4891 30.7484 26.7111 30.881 26.8955 31.0316C27.0867 31.1763 27.2336 31.348 27.3361 31.5469C27.4454 31.7458 27.5 31.9778 27.5 32.2429C27.5 32.4237 27.4693 32.6045 27.4078 32.7853C27.3463 32.9601 27.2439 33.1228 27.1004 33.2734C26.957 33.4241 26.7691 33.5537 26.5369 33.6621C26.3115 33.7706 26.0314 33.849 25.6967 33.8972V35H24.4057V33.9243Z" fill="white"/>
</svg>
