<svg width="45" height="42" viewBox="0 0 45 42" fill="none" xmlns="http://www.w3.org/2000/svg">
<path d="M43.9242 34.5085C43.718 33.515 43.1344 32.6658 42.2792 32.1175C41.4249 31.5691 40.4099 31.3921 39.4207 31.619L34.8338 32.6692V30.7939C35.7534 29.9276 36.7117 28.7957 37.3924 27.7617C38.587 25.9483 39.4327 23.9578 39.9054 21.8444C40.4675 19.3313 40.4795 16.6705 39.9398 14.1488C39.8401 13.6847 39.3837 13.3882 38.9196 13.4879C38.4555 13.5876 38.1599 14.044 38.2587 14.5081C38.7469 16.7891 38.7366 19.1964 38.2278 21.4697C37.8006 23.3785 37.0366 25.1774 35.9571 26.8163C35.6374 27.3019 35.2489 27.8116 34.8338 28.298V18.7718C34.8338 18.2974 34.4487 17.9124 33.9743 17.9124H27.176V8.73424C27.176 8.26068 26.7927 7.8765 26.3191 7.87478L18.6605 7.849C18.6597 7.849 18.6597 7.849 18.6579 7.849C18.431 7.849 18.2127 7.93924 18.052 8.09996C17.8896 8.26068 17.7985 8.47984 17.7985 8.70846V13.4827H10.9993C10.5249 13.4827 10.1399 13.8678 10.1399 14.3422V22.8534H8.225V21.6862C8.225 21.2118 7.83996 20.8268 7.36554 20.8268H6.48374C6.33334 20.0009 6.24653 19.1612 6.2259 18.3232C6.17606 16.2854 6.49835 14.2923 7.18592 12.3972C7.34578 11.9555 7.52798 11.5154 7.72566 11.0892C7.92677 10.6586 7.73941 10.1472 7.30968 9.94693C6.87909 9.74668 6.36771 9.93318 6.16832 10.3629C5.9483 10.8356 5.74633 11.3229 5.56928 11.812C4.80952 13.9082 4.45199 16.1135 4.50785 18.3653C4.52762 19.1887 4.60669 20.0129 4.7399 20.8268H0.859457C0.385037 20.8268 0 21.2118 0 21.6862V36.7929C0 37.2682 0.385037 37.6524 0.859457 37.6524H7.36554C7.83996 37.6524 8.225 37.2682 8.225 36.7929V35.9764H11.4574L24.5538 41.1125C25.7768 41.5921 27.0574 41.8336 28.3449 41.8336C29.2035 41.8336 30.0655 41.7262 30.9147 41.5105L41.1791 38.902C43.1275 38.4061 44.3334 36.4766 43.9242 34.5085ZM6.50609 35.9335H1.71891V22.5457H6.50609V35.9335ZM27.176 32.3349C27.8309 31.3569 28.0484 30.1175 27.7046 28.9865C27.6092 28.6711 27.4734 28.3659 27.2998 28.0849C27.2611 28.0213 27.2198 27.9586 27.1769 27.8975C27.1769 27.8967 27.176 27.8958 27.176 27.895V19.6313H33.1149V33.062L30.8175 33.588C30.5709 33.6447 30.3208 33.6894 30.0698 33.7247C29.1124 33.8562 28.1352 33.8287 27.188 33.6404C27.1838 33.6396 27.1795 33.6387 27.176 33.6379V32.3349ZM19.5174 9.57135L25.4571 9.59112V26.5301L22.1379 25.1567L19.5174 24.0712V9.57135ZM11.8588 15.2016H17.7976V23.3596L16.7319 22.9187C16.627 22.8749 16.5153 22.8525 16.4036 22.8525H11.8588V15.2016ZM40.7563 37.2355L30.4909 39.8448C28.7196 40.2952 26.8829 40.18 25.1812 39.5122L11.9344 34.3168C11.8339 34.2773 11.7273 34.2575 11.6199 34.2575H8.225V24.5723H16.2317L21.7932 26.8739L24.8357 28.1339C25.9126 28.58 26.4283 29.8434 25.9865 30.9185C25.898 31.1343 25.788 31.3397 25.6427 31.5227C25.1039 32.2017 24.2186 32.5008 23.3893 32.2997C23.3832 32.298 23.3764 32.2962 23.3695 32.2945C23.3196 32.2825 23.2706 32.2679 23.2217 32.2515L17.4384 30.0281C17.392 30.0101 17.367 30.0006 17.367 30.0006C16.9236 29.8305 16.4268 30.0513 16.2558 30.4948C16.0856 30.9374 16.3065 31.4351 16.7499 31.6052C16.7499 31.6052 20.0107 32.8592 22.4971 33.8175C22.547 33.8372 22.5968 33.8553 22.6467 33.8725L24.5555 34.6065C25.1331 34.8282 25.7072 35.0491 26.308 35.2029C27.3281 35.4633 28.387 35.5682 29.4381 35.5106C30.0311 35.478 30.6224 35.3963 31.2017 35.2639L34.1668 34.5858C34.1694 34.585 34.1729 34.5833 34.1754 34.5833L39.804 33.2941C40.3395 33.172 40.8895 33.2674 41.351 33.5639C41.8143 33.8605 42.1297 34.3203 42.2414 34.8583C42.4632 35.9231 41.8108 36.9682 40.7563 37.2355Z" fill="#462A71"/>
<path d="M33.1149 19.6313V33.0621L30.8175 33.5881C30.5709 33.6448 30.3208 33.6895 30.0698 33.7247C29.1124 33.8562 28.1352 33.8287 27.188 33.6405C27.1838 33.6396 27.1795 33.6388 27.176 33.6379V32.335C27.8309 31.3569 28.0484 30.1176 27.7046 28.9865C27.6092 28.6711 27.4734 28.366 27.2998 28.085C27.2611 28.0214 27.2198 27.9586 27.1769 27.8976C27.1769 27.8967 27.176 27.8959 27.176 27.895V19.6313H33.1149Z" fill="#FF6300"/>
<path d="M25.4571 9.59118V26.5302L22.1379 25.1568L19.5174 24.0713V9.57141L25.4571 9.59118Z" fill="#FF6300"/>
<path d="M17.7976 15.2017V23.3596L16.7319 22.9187C16.627 22.8749 16.5153 22.8525 16.4036 22.8525H11.8588V15.2017H17.7976Z" fill="#FF6300"/>
<path d="M40.7563 37.2356L30.4909 39.8449C28.7196 40.2953 26.8829 40.1801 25.1812 39.5123L11.9344 34.3169C11.8338 34.2774 11.7273 34.2576 11.6198 34.2576H8.22499V24.5724H16.2317L21.7932 26.874L24.8357 28.134C25.9126 28.58 26.4283 29.8434 25.9865 30.9186C25.898 31.1343 25.788 31.3397 25.6427 31.5228C25.1039 32.2018 24.2186 32.5009 23.3892 32.2998C23.3832 32.298 23.3764 32.2963 23.3695 32.2946C23.3196 32.2826 23.2706 32.268 23.2216 32.2516L17.4384 30.0282C17.392 30.0102 17.367 30.0007 17.367 30.0007C16.9236 29.8305 16.4268 30.0514 16.2558 30.4949C16.0856 30.9375 16.3065 31.4352 16.7499 31.6053C16.7499 31.6053 20.0107 32.8593 22.4971 33.8176C22.547 33.8373 22.5968 33.8554 22.6467 33.8726L24.5555 34.6065C25.1331 34.8283 25.7072 35.0492 26.308 35.203C27.3281 35.4634 28.387 35.5683 29.4381 35.5107C30.0311 35.478 30.6224 35.3964 31.2017 35.264L34.1668 34.5859C34.1694 34.5851 34.1728 34.5833 34.1754 34.5833L39.804 33.2942C40.3394 33.1721 40.8895 33.2675 41.351 33.564C41.8143 33.8605 42.1297 34.3203 42.2414 34.8584C42.4632 35.9232 41.8108 36.9683 40.7563 37.2356Z" fill="white"/>
<path d="M6.50609 22.5458H1.71892V35.9335H6.50609V22.5458Z" fill="white"/>
<path d="M10.9907 6.11294C11.1961 6.11294 11.4024 6.03988 11.5666 5.8912C13.0998 4.50575 14.9313 3.40135 16.8634 2.69574C18.957 1.93168 21.2509 1.60595 23.4993 1.75377C25.1082 1.85949 26.6853 2.20327 28.185 2.77395C28.6285 2.9424 29.1253 2.72066 29.2937 2.27632C29.463 1.83284 29.2404 1.33608 28.7961 1.16762C27.1365 0.535064 25.3918 0.155184 23.6119 0.0382979C21.1272 -0.124999 18.5892 0.235973 16.273 1.08168C14.1355 1.86206 12.1089 3.08421 10.4132 4.61576C10.0608 4.93376 10.0333 5.4778 10.3513 5.82932C10.5223 6.0184 10.7561 6.11294 10.9907 6.11294Z" fill="#462A71"/>
<path d="M30.5013 12.2468C30.6637 12.3878 30.8648 12.4574 31.0642 12.4574C31.304 12.4574 31.5429 12.3577 31.7131 12.1618L38.7838 4.02184C39.095 3.66345 39.0571 3.12113 38.6988 2.80915C38.3404 2.49803 37.798 2.53584 37.4861 2.89423L30.4145 11.0341C30.1042 11.3925 30.1429 11.9357 30.5013 12.2468Z" fill="#462A71"/>
<path d="M36.838 8.57275C35.6485 8.57275 34.6799 9.5405 34.6799 10.7308C34.6799 11.9212 35.6477 12.8889 36.838 12.8889C38.0284 12.8889 38.9961 11.9203 38.9961 10.7308C38.9953 9.5405 38.0275 8.57275 36.838 8.57275ZM36.838 11.1692C36.5957 11.1692 36.3988 10.9724 36.3988 10.73C36.3988 10.4885 36.5957 10.2908 36.838 10.2908C37.0795 10.2908 37.2772 10.4876 37.2772 10.73C37.2763 10.9724 37.0795 11.1692 36.838 11.1692Z" fill="#462A71"/>
<path d="M32.0655 6.65957C33.2549 6.65957 34.2236 5.69183 34.2236 4.50148C34.2236 3.31113 33.2558 2.34338 32.0655 2.34338C30.8751 2.34338 29.9074 3.31113 29.9074 4.50148C29.9074 5.69183 30.8751 6.65957 32.0655 6.65957ZM32.0655 4.0623C32.3078 4.0623 32.5046 4.25911 32.5046 4.50148C32.5046 4.74299 32.3078 4.94066 32.0655 4.94066C31.8231 4.94066 31.6263 4.74385 31.6263 4.50148C31.6263 4.25911 31.8231 4.0623 32.0655 4.0623Z" fill="#462A71"/>
<path d="M7.93537 8.13263C8.07289 8.46266 8.41151 8.68096 8.77076 8.66206C9.12572 8.64401 9.43684 8.40336 9.54599 8.06645C9.65686 7.72611 9.53568 7.33935 9.2512 7.12191C8.96156 6.90103 8.55418 6.88728 8.25079 7.08925C7.91475 7.31357 7.77981 7.76049 7.93537 8.13263Z" fill="#462A71"/>
</svg>
