<svg width="21" height="20" viewBox="0 0 21 20" fill="none" xmlns="http://www.w3.org/2000/svg">
<path fill-rule="evenodd" clip-rule="evenodd" d="M5.6068 9.99959C5.6068 7.23281 7.85975 4.97985 10.6265 4.97985C13.3933 4.97985 15.6463 7.23281 15.6463 9.99959C15.6463 12.7664 13.3933 15.0193 10.6265 15.0193C7.85975 15.0193 5.6068 12.7664 5.6068 9.99959ZM15.8044 0.197266H5.4487C2.91907 0.197266 0.824219 2.29212 0.824219 4.82175V15.1774C0.824219 17.7071 2.91907 19.8019 5.4487 19.8019H15.8044C18.3735 19.8019 20.4289 17.7071 20.4289 15.1774V4.82175C20.4289 2.29212 18.334 0.197266 15.8044 0.197266ZM5.4487 1.34351H15.8044C17.7411 1.34351 19.2826 2.885 19.2826 4.82175V15.1774C19.2826 17.1142 17.7411 18.6557 15.8044 18.6557H5.4487C3.51195 18.6557 1.97046 17.1142 1.97046 15.1774V4.82175C1.97046 2.92453 3.51195 1.34351 5.4487 1.34351ZM16.8321 2.80595C16.2787 2.80595 15.8044 3.28026 15.8044 3.83361C15.8044 4.38697 16.2787 4.86128 16.8321 4.86128C17.3854 4.86128 17.8597 4.38697 17.8597 3.83361C17.8597 3.28026 17.3854 2.80595 16.8321 2.80595ZM16.9506 9.99959C16.9506 6.52135 14.1048 3.67551 10.6265 3.67551C7.1483 3.67551 4.30246 6.52135 4.30246 9.99959C4.30246 13.5174 7.1483 16.3237 10.6265 16.3237C14.1048 16.3237 16.9506 13.5174 16.9506 9.99959Z" fill="white"/>
</svg>
