<svg width="19" height="18" viewBox="0 0 19 18" fill="none" xmlns="http://www.w3.org/2000/svg">
<path fill-rule="evenodd" clip-rule="evenodd" d="M0.428711 9.17783V17.8339H4.53936V8.46637V6.05532H0.428711V9.17783ZM17.978 9.65214C17.7014 7.43871 16.6737 6.01579 13.6698 6.01579C11.8911 6.01579 10.7054 6.6482 10.231 7.59681H10.1915V6.01579H6.91089V8.26875V17.7944H10.3496V11.9841C10.3496 10.4426 10.6658 8.9802 12.5235 8.9802C14.4207 8.9802 14.5789 10.7193 14.5789 12.1027V17.8339H18.0966V11.3517C18.0966 10.7589 18.0571 10.166 17.978 9.65214ZM2.48404 0.166016C1.3378 0.166016 0.428711 1.0751 0.428711 2.22134C0.428711 3.36758 1.3378 4.27667 2.48404 4.27667C3.63028 4.27667 4.53936 3.36758 4.53936 2.22134C4.53936 1.0751 3.63028 0.166016 2.48404 0.166016Z" fill="white"/>
</svg>
