<svg width="48" height="49" viewBox="0 0 48 49" fill="none" xmlns="http://www.w3.org/2000/svg">
<circle cx="24" cy="24.4043" r="17" stroke="#3C3E3E" stroke-width="2"/>
<path d="M28.2733 27.2923V29.4043H19.8092V27.7243L24.1293 23.6443C24.5879 23.207 24.8973 22.8336 25.0573 22.5243C25.2173 22.2043 25.2973 21.8896 25.2973 21.5803C25.2973 21.1323 25.1426 20.791 24.8333 20.5563C24.5346 20.311 24.0919 20.1883 23.5052 20.1883C23.0146 20.1883 22.5719 20.2843 22.1773 20.4763C21.7826 20.6576 21.4519 20.935 21.1853 21.3083L19.2973 20.0923C19.7346 19.4416 20.3373 18.935 21.1053 18.5723C21.8733 18.199 22.7533 18.0123 23.7453 18.0123C24.5773 18.0123 25.3026 18.151 25.9213 18.4283C26.5506 18.695 27.0359 19.079 27.3773 19.5803C27.7293 20.071 27.9053 20.6523 27.9053 21.3243C27.9053 21.9323 27.7773 22.503 27.5213 23.0363C27.2653 23.5696 26.7693 24.1776 26.0333 24.8603L23.4573 27.2923H28.2733Z" fill="#37404E"/>
</svg>
