<svg width="48" height="49" viewBox="0 0 48 49" fill="none" xmlns="http://www.w3.org/2000/svg">
<circle cx="24" cy="24.4043" r="17" stroke="#3C3E3E" stroke-width="2"/>
<path d="M25.1216 22.7643C26.103 22.9243 26.855 23.2923 27.3776 23.8683C27.9003 24.4336 28.1616 25.1376 28.1616 25.9803C28.1616 26.631 27.991 27.2336 27.6496 27.7883C27.3083 28.3323 26.7856 28.7696 26.0816 29.1003C25.3883 29.431 24.535 29.5963 23.5216 29.5963C22.7323 29.5963 21.9536 29.495 21.1856 29.2923C20.4283 29.079 19.783 28.7803 19.2496 28.3963L20.2576 26.4123C20.6843 26.7323 21.175 26.983 21.7296 27.1643C22.295 27.335 22.871 27.4203 23.4576 27.4203C24.1083 27.4203 24.6203 27.2976 24.9936 27.0523C25.367 26.7963 25.5536 26.439 25.5536 25.9803C25.5536 25.063 24.855 24.6043 23.4576 24.6043H22.2736V22.8923L24.5776 20.2843H19.8096V18.2043H27.6496V19.8843L25.1216 22.7643Z" fill="#37404E"/>
</svg>
