<svg width="25" height="24" viewBox="0 0 25 24" fill="none" xmlns="http://www.w3.org/2000/svg">
<path d="M23.0977 5.11613C22.2795 5.475 21.4078 5.71287 20.4989 5.82837C21.4339 5.27012 22.1475 4.39287 22.483 3.3355C21.6113 3.85525 20.6488 4.22238 19.623 4.42725C18.7953 3.54588 17.6155 3 16.3285 3C13.8315 3 11.8213 5.02675 11.8213 7.51138C11.8213 7.86888 11.8515 8.21262 11.9258 8.53987C8.17616 8.357 4.85828 6.55988 2.62941 3.82225C2.24028 4.49738 2.01203 5.27012 2.01203 6.102C2.01203 7.664 2.81641 9.04862 4.01541 9.85025C3.29078 9.8365 2.57991 9.62612 1.97766 9.29475C1.97766 9.3085 1.97766 9.32638 1.97766 9.34425C1.97766 11.536 3.54103 13.3565 5.59116 13.7759C5.22403 13.8763 4.82391 13.9244 4.40866 13.9244C4.11991 13.9244 3.82841 13.9079 3.55478 13.8474C4.13916 15.6335 5.79741 16.9466 7.76916 16.9893C6.23466 18.1896 4.28628 18.9129 2.17703 18.9129C1.80716 18.9129 1.45241 18.8964 1.09766 18.851C3.09553 20.1394 5.46328 20.875 8.01666 20.875C16.3162 20.875 20.8537 14 20.8537 8.04075C20.8537 7.84137 20.8468 7.64888 20.8372 7.45775C21.7323 6.8225 22.4844 6.02912 23.0977 5.11613Z" fill="white"/>
</svg>
