<svg width="21" height="20" viewBox="0 0 21 20" fill="none" xmlns="http://www.w3.org/2000/svg">
<path fill-rule="evenodd" clip-rule="evenodd" d="M20.0966 9.50565C19.9385 4.24876 15.6302 0.0195312 10.2943 0.0195312C5.03737 0.0195312 0.729088 4.13018 0.491935 9.30802C0.452409 9.4266 0.452409 9.5847 0.452409 9.74281C0.452409 11.561 0.966241 13.3001 1.87533 14.7625L0.0966797 19.9799L5.5512 18.2408C6.97411 18.9918 8.59466 19.4266 10.2943 19.4266C15.7092 19.4266 20.0966 15.0787 20.0966 9.70328C20.0966 9.62423 20.0966 9.5847 20.0966 9.50565ZM14.7606 11.7191C14.5235 11.6005 13.3377 11.0076 13.1401 10.9286C12.9029 10.8495 12.7448 10.81 12.5867 11.0471C12.4286 11.2843 11.9543 11.7981 11.8358 11.9562C11.6776 12.1143 11.5591 12.1539 11.3219 12.0353C11.0452 11.9167 10.2943 11.6796 9.38517 10.8495C8.67371 10.2171 8.15988 9.4266 8.0413 9.22897C7.92273 8.95229 8.00178 8.87324 8.12035 8.71514C8.23893 8.63609 8.35751 8.43846 8.47608 8.31989C8.51561 8.28036 8.55513 8.24084 8.55513 8.20131C8.63418 8.12226 8.63419 8.04321 8.71324 7.92463C8.79229 7.76653 8.75276 7.60843 8.67371 7.52938C8.63419 7.4108 8.15988 6.22503 7.92273 5.75073C7.7251 5.27642 7.52747 5.35547 7.4089 5.35547C7.25079 5.35547 7.09269 5.31595 6.93459 5.31595C6.77649 5.31595 6.49981 5.35547 6.30218 5.63215C6.06503 5.86931 5.43262 6.42266 5.43262 7.60843C5.43262 7.88511 5.47215 8.16178 5.59072 8.39894C5.82788 9.2685 6.34171 9.94043 6.42076 10.059C6.53933 10.2171 8.08083 12.7072 10.5314 13.6558C12.982 14.6044 12.982 14.2882 13.4168 14.2487C13.8516 14.2092 14.8397 13.6954 15.0373 13.1025C15.2349 12.5491 15.2349 12.0748 15.1559 11.9562C15.1559 11.8772 14.9978 11.7981 14.7606 11.7191ZM10.2943 17.9246C8.63419 17.9246 7.05317 17.4107 5.74882 16.5807L2.58679 17.5689L3.61445 14.5254C2.62631 13.1815 2.03343 11.5215 2.03343 9.74281C2.03343 9.46613 2.03343 9.22897 2.07295 8.9523C2.46821 4.80212 6.0255 1.56103 10.2943 1.56103C14.6421 1.56103 18.1994 4.88117 18.5156 9.1104C18.5551 9.30802 18.5551 9.54518 18.5551 9.74281C18.5156 14.2487 14.8397 17.9246 10.2943 17.9246Z" fill="white"/>
</svg>
