<svg width="21" height="15" viewBox="0 0 21 15" fill="none" xmlns="http://www.w3.org/2000/svg">
<path d="M19.6552 2.14325L19.6802 2.31619C19.4385 1.40825 18.786 0.707659 17.9569 0.452659L17.9394 0.448247C16.3802 1.21072e-05 10.1061 1.21941e-05 10.1061 1.21941e-05C10.1061 1.21941e-05 3.84786 -0.00881139 2.27287 0.448247C1.42789 0.707659 0.77456 1.40825 0.537063 2.29766L0.532896 2.31619C-0.0495968 5.53765 -0.0537634 9.40853 0.558729 12.8576L0.532896 12.6829C0.77456 13.5909 1.42705 14.2915 2.25621 14.5465L2.27371 14.5509C3.83119 15 10.1069 15 10.1069 15C10.1069 15 16.3644 15 17.9402 14.5509C18.786 14.2915 19.4393 13.5909 19.6768 12.7015L19.681 12.6829C19.946 11.1847 20.0977 9.46059 20.0977 7.69942C20.0977 7.635 20.0977 7.56971 20.0968 7.50442C20.0977 7.44442 20.0977 7.37295 20.0977 7.30148C20.0977 5.53942 19.946 3.8153 19.6552 2.14325ZM8.10447 10.7215V4.28648L13.3261 7.50883L8.10447 10.7215Z" fill="white"/>
</svg>
